<svg width="60" height="50" xmlns="http://www.w3.org/2000/svg">
 <g id="Layer_1">
  <title>Layer 1</title>
  <g stroke="null" id="svg_12">
   <g stroke="null" id="svg_11">
    <g stroke="null" id="svg_9">
     <g stroke="null" id="svg_7">
      <g stroke="null" id="svg_5">
       <path stroke="#000" id="svg_1" d="m11.81391,18.72829c-0.1329,0 -0.2012,-0.11545 -0.2012,-0.2539c0,-0.11542 0.03415,-0.22749 0.1329,-0.22749c0.06831,0 0.17114,0.11206 0.20529,0.22749c0.06831,0.16805 0,0.2539 -0.13698,0.2539l0,0zm22.71709,6.58745c0.30404,0 0.37234,0.02961 0.2012,0.22746c-0.09875,0.13845 -0.30403,0.25387 -0.40278,0.25387c-0.10282,0 -0.20529,-0.11542 -0.20529,-0.25387c0,-0.14184 0.13699,-0.22746 0.40686,-0.22746l0,0zm-21.22699,-8.05794c-0.30403,-0.05602 -0.33819,-0.33968 0,-0.42533c0.17113,-0.02637 0.26988,0.05601 0.26988,0.22749c0,0.14182 -0.09876,0.22424 -0.26988,0.19784l0,0zm-3.78984,8.96123c0.40686,-0.08243 0.40686,-0.14167 0.26988,-0.3363c-0.10247,-0.14167 -0.13662,-0.31313 -0.06831,-0.36916c0.03415,-0.0858 0.20529,0 0.30403,0.16807c0.13698,0.22749 0.23943,0.25727 0.50932,0.11542c0.16743,-0.08564 0.30403,-0.14181 0.30403,-0.05601c0,0.05601 0.10283,0 0.23572,-0.11542c0.2053,-0.16807 0.23945,-0.53738 0.03416,-0.73524c-0.16705,-0.16807 -1.01493,-0.11205 -1.25065,0.08564c-0.13662,0.14185 -0.23945,0.11222 -0.37234,-0.14165c-0.20529,-0.42212 -0.20529,-0.48138 0.26987,-0.50776c0.40686,0 0.40686,0 0.06831,-0.17146c-0.17077,-0.08243 -0.33818,-0.25387 -0.33818,-0.36593c0,-0.28365 0.47145,-0.45172 0.67674,-0.25386c0.06831,0.08241 0.20121,0.16807 0.33819,0.16807c0.26988,0 1.5584,-0.95935 1.5584,-1.15721c0,-0.08579 0.13327,-0.1418 0.26988,-0.08579c0.16742,0.02978 0.47146,-0.05601 0.77957,-0.19786c0.43693,-0.22747 0.43693,-0.25387 0.2012,-0.62303c-0.16705,-0.25387 -0.37234,-0.33968 -0.84751,-0.33968c-0.53976,0 -0.67674,0.05604 -0.84379,0.39572c-0.06868,0.22746 -0.27396,0.39554 -0.40686,0.39554c-0.23572,0 -0.30403,-0.25372 -0.06831,-0.39554c0.10246,-0.05604 0.17077,-0.25387 0.17077,-0.45173c0,-0.30991 -0.06831,-0.36593 -0.50932,-0.2835c-0.44101,0.05601 -0.44101,0.02961 -0.33819,-0.39574c0.06831,-0.25386 0.16705,-0.48133 0.23574,-0.50773c0.06831,-0.02961 0.13661,-0.2835 0.13661,-0.53737c0,-0.50778 0.20158,-0.59342 0.57429,-0.22749c0.17075,0.19785 0.27359,0.22749 0.33818,0.05601c0.06831,-0.11205 0.30774,-0.13845 0.68046,-0.08244c0.50561,0.11206 0.53976,0.08244 0.47145,-0.25387c-0.03415,-0.19783 -0.06867,-0.42532 -0.10282,-0.48133c0,-0.08566 -0.16705,-0.19786 -0.36863,-0.28352c-0.40686,-0.1418 -0.50932,-0.48133 -0.13698,-0.48133c0.10283,0 0.20157,-0.05604 0.20157,-0.16825c0,-0.08566 0.2053,-0.14167 0.47517,-0.11544c0.37271,0.02978 0.57392,-0.08239 1.08324,-0.67578c0.37271,-0.42535 0.64259,-0.65282 0.67675,-0.53739c0.03415,0.14167 0.20529,0.22408 0.3727,0.22408c0.26988,0 0.30404,-0.08241 0.2053,-0.45157c-0.03452,-0.25389 -0.2053,-0.56377 -0.30812,-0.70562c-0.30404,-0.31326 -0.30404,-0.67919 0,-0.56717c0.23943,0.11222 0.98448,-0.19768 0.98448,-0.39553c0,-0.0858 0.09912,-0.14182 0.23572,-0.14182c0.13699,0 0.20158,0.17145 0.20158,0.39571c0,0.2835 0.06831,0.39556 0.23945,0.31312c0.1329,-0.05925 0.23574,-0.22749 0.23574,-0.33952c0,-0.3397 1.08323,-0.9331 1.3531,-0.76488c0.10284,0.05605 0.20529,0 0.23983,-0.19783c0.09874,-0.39571 0.71051,-0.70562 0.98039,-0.50776c0.13699,0.08241 0.26989,0.05604 0.30442,-0.02961c0.0683,-0.11221 0.33818,-0.19786 0.64221,-0.22428c0.30403,-0.02961 0.71089,-0.14182 0.88203,-0.25725c0.64221,-0.36593 1.28481,-0.33953 1.55469,0.05621c0.17114,0.28348 0.23943,0.28348 0.23943,0.08562c0,-0.25389 0.13328,-0.2835 0.94663,-0.19783c1.28852,0.11221 1.4901,0.11221 1.96527,-0.02964c0.30403,-0.08243 0.40685,-0.05603 0.40685,0.17143c0,0.14185 0.09876,0.2539 0.23574,0.2539c0.10246,0 0.2012,-0.08244 0.2012,-0.16823c0,-0.22746 0.54385,-0.33952 1.01901,-0.22746c0.36863,0.11221 0.40278,0.1418 0.30403,0.90344c-0.03415,0.45496 0,0.76486 0.0646,0.76486c0.0683,0 0.13698,-0.19786 0.13698,-0.48136c0,-0.47813 0.37234,-0.67583 0.50932,-0.2835c0.03416,0.14168 0.1329,0.08565 0.2012,-0.13844c0.17115,-0.59357 0.54385,-0.28367 0.44101,0.36593c-0.10245,0.53737 -0.10245,0.53737 0.20159,0.33951c0.17113,-0.08565 0.30402,-0.30988 0.30402,-0.45157c0,-0.14183 0.10284,-0.31006 0.23946,-0.36932c0.26986,-0.11202 0.57428,0.31315 0.47516,0.62318c-0.03415,0.1417 -0.03415,0.25389 0.06459,0.25389c0.06868,0 0.13699,-0.08241 0.13699,-0.14182c0,-0.08243 0.16742,-0.11206 0.3727,-0.05601c0.44065,0.08565 0.50524,0.3131 0.13291,0.45155c-0.09875,0.05941 -0.20158,0.19786 -0.20158,0.3133c0,0.19786 0.06867,0.19786 0.44101,0c0.60807,-0.33952 0.87794,-0.3133 0.98078,0.05601c0.0683,0.19786 0.20157,0.28366 0.33818,0.19786c0.13698,-0.02963 0.44101,0.0858 0.67675,0.2835c0.20529,0.16822 0.50932,0.30991 0.6463,0.30991c0.20158,0 0.20158,0.14184 0.1329,0.53753c-0.0683,0.42535 -0.0683,0.48136 0.13699,0.30992c0.26987,-0.2803 0.37234,-0.25391 0.47146,0.14165c0.03415,0.19786 0.27358,0.33968 0.54347,0.42533c0.30403,0.05621 0.47146,0.19785 0.47146,0.36608c0,0.17145 0.10245,0.36916 0.20529,0.48137c0.26988,0.19783 0.2012,0.79123 -0.10284,0.98909c-0.10245,0.05926 -0.23571,0.02964 -0.26987,-0.05601c-0.0683,-0.08581 -0.30403,-0.08581 -0.74505,0c-0.71089,0.19768 -0.84379,0.25387 -0.67674,0.51096c0.10283,0.16807 1.28517,0.11206 1.93111,-0.0858c0.20158,-0.08565 0.26988,0 0.26988,0.39572c0,0.28348 -0.06831,0.50776 -0.17077,0.50776c-0.06868,0 -0.13327,0.08564 -0.13327,0.22746c0,0.33967 0.16743,0.30988 0.60844,-0.08566c0.23535,-0.22746 0.37233,-0.28365 0.53976,-0.1418c0.17077,0.1418 0.20529,0.1418 0.20529,-0.08566c0,-0.13862 -0.06868,-0.25387 -0.17113,-0.25387c-0.0646,0 -0.13328,-0.11221 -0.13328,-0.22428c0,-0.14181 0.09912,-0.25387 0.23572,-0.25387c0.10283,0 0.23945,0.05601 0.23945,0.13845c0,0.08583 0.13327,0.19785 0.3044,0.22749c0.23536,0.08581 0.30403,0.19786 0.26987,0.53738c-0.06867,0.64956 0.06832,0.84744 0.57392,0.73539c0.23945,-0.05621 0.37233,0 0.26988,0.11205c-0.03044,0.05601 0,0.19786 0.06831,0.25708c0.27396,0.16824 0.17113,0.56381 -0.13291,0.56381c-0.3727,0 -0.47517,0.1418 -0.27358,0.39569c0.13661,0.14182 0.23943,0.16807 0.37233,0.05603c0.30812,-0.2835 0.37271,-0.05603 0.40686,1.07493c0,0.56697 0.06831,1.01872 0.13662,1.01872c0.16742,0 0.10283,0.62318 -0.13662,0.87705c-0.13327,0.14167 -0.13327,0.28011 -0.03415,0.39553c0.23943,0.2539 0,0.98914 -0.30442,0.98914c-0.26986,0 -0.77919,0.53737 -0.77919,0.79125c0,0.31008 -0.43693,0 -0.53976,-0.33953c-0.10246,-0.3099 -0.10246,-0.3099 -0.17114,-0.0858c-0.06459,0.25726 0.3044,1.04851 0.61216,1.27274c0.20157,0.17148 -0.17114,0.45496 -0.44102,0.33953c-0.13699,-0.05601 -0.20158,-0.22408 -0.20158,-0.39554c0,-0.48133 -0.84751,-1.69472 -1.4901,-2.14966c-0.34189,-0.22428 -0.64594,-0.47815 -0.64594,-0.56378c0,-0.17146 -1.0836,-0.70562 -1.69166,-0.87707c-0.33856,-0.0858 -0.44102,-0.05602 -0.44102,0.17145c0,0.16807 -0.06459,0.22408 -0.20158,0.16807c-0.30403,-0.11206 -0.44101,0.14185 -0.17113,0.39572c0.3727,0.3099 0.30812,0.67919 -0.09875,0.53737c-0.27359,-0.08565 -0.30775,-0.05604 -0.20529,0.42534c0.03415,0.28027 0.10283,0.64956 0.10283,0.81763c0,0.17146 0.0683,0.28352 0.13661,0.28352c0.09913,0 0.13327,-0.05604 0.0646,-0.14167c-0.03415,-0.08581 0.03453,-0.16823 0.17113,-0.16823c0.10284,0 0.20158,0.1122 0.20158,0.22424c0,0.11544 -0.13326,0.22746 -0.3727,0.19788c-0.2012,0 -0.37234,-0.08244 -0.37234,-0.13846c0,-0.25727 -0.91247,-2.008 -1.18234,-2.2651c-0.30404,-0.2803 -0.10247,-0.36593 -2.50504,0.9627c-0.37233,0.19786 -0.77919,0.62318 -0.98448,0.9331c-0.16743,0.30988 -0.4373,0.62318 -0.57392,0.67919c-0.13698,0.05604 -0.64259,0.50776 -1.08361,0.98911c-1.89696,2.11987 -1.58884,2.37376 -1.45594,6.70289c0.57428,3.28044 0.57428,3.28044 0.57428,3.28044c-1.35348,0 -1.35348,0 -1.35348,0c-1.11739,0 -1.11739,0 -1.11739,0c0.10246,-3.02674 0.10246,-3.02674 0.10246,-3.02674c0.0683,-0.2537 0.10283,-0.76483 0.13699,-1.04836c0.03415,-0.16822 -0.95034,-0.90347 -0.91618,-1.07152c0,-0.14182 1.01864,0.2539 1.01864,0.11205c0.16742,-2.06386 0,-3.70579 -0.44102,-4.57962c-0.10246,-0.53739 -0.95033,-2.26493 -1.08323,-2.26493c-0.03416,0 -0.27359,-0.16822 -0.50932,-0.36608c-0.40687,-0.36914 -0.57392,-0.39556 -2.84359,-0.50776c-2.43672,-0.11527 -2.43672,-0.11527 -2.43672,-0.11527c-0.57763,0.39556 -0.57763,0.39556 -0.57763,0.39556c-0.33818,0.25725 -0.67674,0.42533 -0.77549,0.42533c-0.20529,0 -1.05316,0.59354 -1.42179,0.93305c-0.03415,0 -0.0683,-0.02958 -0.0683,-0.05601c-0.03416,0 -0.03416,0 -0.03416,-0.02963c-0.03415,-0.08241 -0.06867,-0.16822 -0.13698,-0.25387c0.20529,-0.14182 0.3727,-0.22762 0.44101,-0.19783c0.10246,0.05601 0.20158,0 0.20158,-0.14185c0,-0.14167 -0.20158,-0.19785 -0.74133,-0.14167c-0.64631,0.08566 -0.81372,0.11527 -0.91618,0.45158c-0.16743,0.17145 -0.20158,0.42534 -0.10246,0.6232c-0.03453,0.25387 -0.03453,0.42532 0,0.42532c0.03415,0 0.0683,-0.05601 0.17077,-0.11542c0,0.02964 0.03415,0.05941 0.06867,0.0858c-0.33855,0.08565 -0.50969,0.33953 -0.47517,0.5934c-0.17113,0.11542 -0.33855,0.17145 -0.54383,0.2571c0,0 0,-0.02961 -0.03045,-0.02961c0.13327,-0.25387 0.20158,-0.53739 0.23572,-0.96271c0.06868,-0.47815 0.03415,-0.79125 -0.0683,-0.79125c-0.06831,0 -0.13698,0.11542 -0.13698,0.28347c0.03414,0.14185 -0.03045,0.28352 -0.16707,0.30992c-0.10283,0.02961 -0.17113,-0.0264 -0.17113,-0.16807c0,-0.33968 -0.13291,-0.33968 -0.43731,-0.02978c-0.13661,0.11542 -0.40649,0.25389 -0.64221,0.3133c-0.30812,0.08241 -0.40686,0.02637 -0.54384,-0.28352c-0.10246,-0.25387 -0.17077,-0.53753 -0.10246,-0.64958c0.03415,-0.14182 0.03415,-0.2571 -0.09875,-0.2571c-0.37271,0 -0.10283,-0.45175 0.33818,-0.53754l0,0zm2.91189,-6.50165c-0.20529,-0.02961 -0.37271,-0.11205 -0.44101,-0.22747c-0.03416,-0.16822 -0.06831,-0.16822 -0.06831,0c0,0.11542 -0.13698,0.19786 -0.26988,0.22747c-0.23943,0 -0.23943,0.02963 0.03416,0.14185c0.16704,0.05601 0.33818,0.14165 0.37233,0.14165c0.03044,0 0.20158,-0.08564 0.37271,-0.14165c0.30403,-0.14185 0.30403,-0.14185 0,-0.14185zm26.84511,4.55322c0.0646,0.05604 0.13291,-0.02978 0.13291,-0.17145c0,-0.1122 -0.06831,-0.22426 -0.13291,-0.22426c-0.10282,0 -0.17113,0.05603 -0.17113,0.13845c0,0.08581 0.06831,0.20124 0.17113,0.25727zm-0.23943,0.25389c-0.03415,-0.08581 -0.20158,-0.19785 -0.33855,-0.19785c-0.09875,0 -0.16705,0.11204 -0.09875,0.19785c0.03044,0.08565 0.16742,0.14168 0.30403,0.14168c0.13327,0 0.16742,-0.05604 0.13327,-0.14168l0,0zm-0.30403,1.27259c0.10246,0 0.23943,-0.02961 0.23943,-0.05601c0,-0.05941 -0.13698,-0.11542 -0.23943,-0.17146c-0.13327,-0.05603 -0.23574,-0.0264 -0.23574,0.05604c0,0.0858 0.10247,0.17143 0.23574,0.17143l0,0zm0.26988,-2.68702c0.13661,-0.05605 0.20528,-0.14184 0.17077,-0.22428c-0.10247,-0.20106 -0.67638,-0.20106 -0.67638,0c0,0.22428 0.20121,0.30992 0.50562,0.22428zm-1.85909,-2.12007c-0.17114,0.08581 -0.27359,0.25389 -0.23946,0.33968c0.17114,0.22411 0.37272,0.16807 0.54348,-0.19786c0.16743,-0.33968 0.09912,-0.39569 -0.30402,-0.14182zm-0.64631,4.35537c0.88202,0.76162 0.91618,0.79125 0.91618,0.53738c0,-0.14167 -0.06831,-0.2571 -0.17114,-0.2571c-0.09874,0 -0.26987,-0.14185 -0.37233,-0.3099c-0.09876,-0.16825 -0.30403,-0.33971 -0.47146,-0.33971c-0.30774,0 -0.30774,0.02979 0.09875,0.36932l0,0zm-0.71053,-1.33202c0.20492,0 0.30404,-0.05601 0.17078,-0.08242c-0.10246,-0.05603 -0.26988,-0.05603 -0.37234,0c-0.10284,0.02641 0,0.08242 0.20157,0.08242zm-0.98077,-3.84423c0.10246,0.08566 0.40649,0.19771 0.67636,0.2539c0.47518,0.08564 0.50933,0.08564 0.23945,-0.14182c-0.30774,-0.2803 -1.15153,-0.36593 -0.91581,-0.11207zm-2.06439,-4.69164c-0.10246,0.08241 -0.13661,0.25387 -0.10246,0.36591c0.06831,0.22749 0.26988,0.02964 0.26988,-0.3099c0,-0.17146 -0.03416,-0.19786 -0.16743,-0.05601zm1.01493,6.1061c0.26988,0.14165 0.37271,0.14165 0.5097,-0.05619c0.26987,-0.30991 0.09874,-0.45157 -0.40687,-0.25386c-0.40686,0.1386 -0.40686,0.1386 -0.10283,0.31005zm-0.67636,-1.41446c0.50932,-0.30987 0.50932,-0.30987 0.10246,-0.30987c-0.27359,0 -0.47517,0.11202 -0.57763,0.30987c-0.0646,0.19771 -0.13327,0.30992 -0.09912,0.30992c0,0 0.26988,-0.16824 0.57429,-0.30992zm-0.74505,4.58285c0.23535,0.30992 0.64222,0.30992 0.50932,-0.02963c-0.03415,-0.1122 -0.06867,-0.25387 -0.06867,-0.28366c0,-0.0264 -0.13662,-0.0264 -0.30403,0.02979c-0.27359,0.05603 -0.27359,0.14167 -0.13662,0.2835zm-1.04945,-1.16056c0.26987,0.30991 0.40686,0.33952 0.71089,0.11206c0.20158,-0.14167 0.20158,-0.14167 0,-0.16807c-0.10246,0 -0.37234,-0.02979 -0.60807,-0.08581c-0.33855,-0.11205 -0.33855,-0.11205 -0.10283,0.14182zm-0.03415,-3.08276c0.17113,0 0.3727,-0.45172 0.26988,-0.59339c-0.13291,-0.14182 -0.4065,0.08564 -0.4065,0.33952c0,0.14183 0.06831,0.25387 0.13662,0.25387zm-1.65715,1.92219c-0.20529,0.11542 -0.17113,0.14185 0.09876,0.14185c0.17113,0 0.37233,-0.05621 0.44101,-0.14185c0.10245,-0.22423 -0.23574,-0.22423 -0.53977,0zm0.03416,2.48921c0.03044,0.02979 0.1329,-0.02963 0.23572,-0.16807c0.10245,-0.11542 0.4065,-0.25725 0.64221,-0.31328c0.30403,-0.08566 0.44102,-0.2241 0.44102,-0.42534c0,-0.47795 -0.47517,-0.33631 -0.98079,0.28367c-0.20528,0.31313 -0.37233,0.56702 -0.33817,0.62303l0,0zm-0.3727,-1.30223c0.30402,-0.30988 0.30402,-0.36608 0.06458,-0.45173c-0.26987,-0.11206 -0.47108,0.14185 -0.47108,0.5934c-0.03452,0.33968 -0.03452,0.33968 0.4065,-0.14167zm-0.54348,-3.33662c0.03415,0.22746 0.10246,0.19785 0.30402,-0.22426c0.23946,-0.45158 0.23946,-0.51099 0.03416,-0.51099c-0.1329,0 -0.26988,0.08566 -0.30403,0.2275c-0.06831,0.11204 -0.06831,0.36931 -0.03415,0.50776zm-0.16743,-2.31776c0,0.11527 0.06459,0.39556 0.13327,0.5934c0.10246,0.39571 0.10246,0.39571 0.20529,0.05603c0.1329,-0.33951 0,-0.84726 -0.20529,-0.84726c-0.09912,0 -0.13327,0.08562 -0.13327,0.19783zm-2.37176,0.93292c-0.16742,0.19786 -0.16742,0.39572 -0.03452,0.98911c0.06868,0.42533 0.23982,0.85067 0.33855,0.9331c0.17114,0.14182 0.20529,0 0.23943,-0.87692c0,-1.07155 -0.17113,-1.41121 -0.54347,-1.0453zm0.30403,2.99711c0.03416,0.05604 0.10246,-0.05603 0.06831,-0.22425c0,-0.17146 -0.03415,-0.19786 -0.10246,-0.08565c-0.03045,0.11205 -0.03045,0.25387 0.03415,0.3099zm1.22021,-2.65743c-0.03415,0.05604 -0.03415,0.45175 0.06831,0.87692c0.10283,0.73539 0.13327,0.765 0.16743,0.22762c0.03415,-0.87707 -0.03416,-1.30239 -0.23574,-1.10454l0,0zm-1.15191,7.97551c0.20529,-0.33968 0.54348,-0.9067 0.7792,-1.24636c0.26987,-0.36596 0.44101,-0.84729 0.50932,-1.32864c0.09912,-0.76164 0.09912,-0.76164 0.09912,-0.76164c-0.40686,0.42211 -0.40686,0.42211 -0.40686,0.42211c-0.20158,0.22749 -0.33819,0.48136 -0.33819,0.56702c0,0.22424 -0.64259,1.63867 -0.84416,1.89256c-0.10246,0.14165 -0.27359,0.45496 -0.30403,0.67919c-0.17114,0.64945 0.13327,0.53738 0.50561,-0.22423zm-2.40257,2.9113c0.10283,0.56377 0.10283,0.56377 0.44102,-0.64959c0.20158,-0.65282 0.50561,-1.69793 0.71089,-2.34753c0.26987,-0.82089 0.3727,-1.50008 0.3727,-2.45955c0,-1.24623 -0.03452,-1.27263 -0.30439,-1.13078c-0.61179,0.36592 -0.95034,1.38464 -1.08696,3.36284c-0.06459,1.01892 -0.13327,2.03764 -0.20157,2.2619c-0.03416,0.22747 0,0.65281 0.0683,0.96271l0,0zm0.06868,-7.23706c0.1329,0.28029 0.26988,0.50776 0.26988,0.50776c0.03415,0 0.20119,-0.17146 0.33818,-0.39569c0.17113,-0.1977 0.44101,-0.42517 0.54348,-0.5076c0.40314,-0.25725 0.5056,-1.0485 0.16742,-1.58588c-0.26988,-0.48136 -1.01493,-1.0189 -1.15192,-0.84744c-0.0683,0.05603 -0.16704,0.59357 -0.23572,1.2166c-0.13661,0.93308 -0.13661,1.21672 0.06868,1.61226l0,0zm-0.20529,-6.47539c0.06831,0.05619 0.13661,0.0264 0.13661,-0.05924c0,-0.11221 -0.0683,-0.22428 -0.13661,-0.2803c-0.10283,-0.05941 -0.16743,-0.02963 -0.16743,0.08244c0,0.08565 0.0646,0.19786 0.16743,0.2571l0,0zm-10.96709,7.60295c0.47145,0.02978 0.47145,0.02978 0.47145,0.02978c0.47517,0 0.95034,-0.36608 0.95034,-0.67919c0,-0.19786 -0.03415,-0.19786 -1.42179,0.64941l0,0zm0.20158,-0.79126c0,0.08584 0.06831,0.17146 0.17114,0.17146c0.16705,0 0.64221,-0.50776 0.53976,-0.59339c-0.10283,-0.11542 -0.71089,0.25386 -0.71089,0.42193l0,0zm0.3727,-1.94856c0.50933,0.56392 0.74505,0.61994 1.01493,0.25386c0.27359,-0.33951 0.03416,-0.56699 -0.77957,-0.64943c-0.67637,-0.08581 -0.67637,-0.08581 -0.23536,0.39557zm-0.3727,-1.58574c0,0.05924 0.23943,0.19768 0.50932,0.3131c1.25066,0.53739 1.4901,0.53739 1.45594,0.02643c0,-0.30992 -0.50932,-0.98913 -0.71089,-0.98913c-0.23943,0 -1.25436,0.53738 -1.25436,0.6496l0,0zm1.82865,4.01568c0.37234,0 0.40649,-0.08566 0.10246,-0.22411c-0.13698,-0.02978 -0.26988,0 -0.30403,0.08244c-0.06868,0.08562 0.03415,0.14167 0.20158,0.14167l0,0zm0.26988,-6.64349c-0.23574,-0.14184 -0.54014,-0.19785 -0.67675,-0.14184c-0.23572,0.11221 -0.20158,0.14184 0.13661,0.22746c0.16743,0.05621 0.5097,0.11222 0.67675,0.13862c0.20158,0 0.20158,-0.05619 -0.13661,-0.22424zm-0.03044,1.01872c0.20119,0 0.23572,-0.02963 0.09875,-0.11527c-0.09875,-0.02638 -0.23574,-0.02638 -0.30404,0.02964c-0.03415,0.05601 0.06831,0.11206 0.2053,0.08564l0,0zm0.20119,0.64961c-0.47516,0 -0.47516,0.02637 -0.20119,0.25386c0.33818,0.25387 0.43693,0.28348 0.57392,0.11205c0.23571,-0.22411 0.0683,-0.36591 -0.37272,-0.36591zm0.67676,-3.19482c-0.13699,-0.14182 -0.17114,0.11206 -0.10247,0.42196c0.03415,0.19786 0.17077,0.36929 0.23945,0.36929c0.1329,0 0.03415,-0.62318 -0.13698,-0.79125l0,0zm1.08323,3.73216c-0.0683,0.02643 0.10283,0.19786 0.3044,0.3397c0.20529,0.14167 0.37233,0.19769 0.37233,0.11205c0,-0.19783 -0.57391,-0.56714 -0.67674,-0.45175zm-0.84751,0.19786c-0.30403,0.19788 -0.1329,0.70561 0.30775,0.79127c0.23572,0.05602 0.60844,0.2835 0.84416,0.50774c0.20529,0.22749 0.37233,0.3133 0.37233,0.22749c0,-0.2835 -1.35311,-1.64192 -1.52425,-1.52649l0,0zm1.38764,2.34755c-0.20157,-0.45513 -0.4373,-0.67923 -0.87832,-0.82106c-0.33818,-0.11205 -0.67674,-0.17143 -0.77919,-0.14165c-0.10283,0.02961 0.30403,0.39554 0.88203,0.82087c1.08323,0.73524 1.08323,0.73524 0.77548,0.14184zm1.79784,-4.35538c-0.06831,0 -0.13699,0.11206 -0.13699,0.22411c0,0.14182 0.06868,0.22749 0.13699,0.22749c0.09875,0 0.16743,-0.08566 0.16743,-0.22749c0,-0.11205 -0.06868,-0.22411 -0.16743,-0.22411zm-0.30774,2.31776c0,0.19783 0.57763,0.05603 0.81335,-0.19786c0.33819,-0.42532 0.30403,-0.53738 -0.13698,-0.53738c-0.30403,0 -0.67637,0.39573 -0.67637,0.73524zm0.98449,-6.10612c-0.10283,0.36593 -0.17114,0.67583 -0.13698,0.70562c0.10282,0.11206 0.37271,-0.73522 0.37271,-1.07491c0,-0.14167 -0.10284,0.02979 -0.23574,0.36929zm1.75998,5.7104c-0.17114,0 -0.30404,0.05621 -0.30404,0.16822c0,0.08566 0.09875,0.14185 0.2012,0.14185c0.13698,0 0.26988,-0.05619 0.3044,-0.14185c0.06831,-0.11202 -0.03452,-0.16822 -0.20157,-0.16822l0,0zm-0.40687,5.31484c0.20158,0.51114 0.50561,0.98911 0.67675,1.10454c0.17114,0.08566 0.50932,0.48137 0.71089,0.87707c0.20158,0.39556 0.40686,0.70546 0.44102,0.70546c0.16704,0 -0.17114,-2.60125 -0.40686,-3.39266c-0.2053,-0.67904 -0.26989,-1.30223 -0.23574,-2.29135c0.03044,-0.73522 0,-1.38482 -0.0683,-1.44084c-0.03416,-0.05603 -0.26988,-0.05603 -0.47517,0c-0.37271,0.11205 -0.40686,0.19786 -0.40686,0.82104c0,0.47798 -0.06832,0.73524 -0.23574,0.84726c-0.47516,0.2539 -0.44101,1.69473 0,2.76948l0,0zm-0.98077,-3.78819c-0.06831,-0.42533 -0.13661,-0.48136 -0.50932,-0.48136c-0.44102,0 -0.44102,0.02963 -0.40686,0.62303c0,0.36608 0.06867,0.7914 0.10282,0.9891c0.03416,0.19786 0.16743,0.39569 0.30404,0.42533c0.26987,0.14184 0.57391,-0.84726 0.50932,-1.5561l0,0zm-0.50932,2.85511c-0.30404,-0.33953 -0.50932,-0.70546 -0.53977,-0.79125c0,-0.11205 -0.17113,-0.39554 -0.37234,-0.64943c-0.20529,-0.25387 -0.44101,-0.56715 -0.54384,-0.67922c-0.33818,-0.39569 -0.26988,-0.05601 0.10283,0.82089c0.23572,0.59354 0.64222,1.13094 1.11739,1.58266c0.87831,0.76485 0.98078,0.62305 0.23574,-0.28365l0,0zm-0.53977,1.38803c0.36863,0 0.33819,-0.02961 -0.17113,-0.48133c-0.33819,-0.28352 -0.57392,-0.59342 -0.57392,-0.73525c0,-0.11204 -0.44102,-0.51098 -0.95033,-0.87692c-0.50562,-0.36928 -0.98079,-0.73522 -1.04909,-0.84741c-0.06868,-0.14167 -0.10283,-0.14167 -0.10283,0.0264c0,0.17146 -0.16705,0.19783 -0.71089,0.11205c-0.37234,-0.05604 -0.67637,-0.05604 -0.67637,-0.02625c0,0.05603 0.13661,0.39556 0.27359,0.73522c0.23574,0.56379 0.33818,0.67923 1.08324,0.90332c0.47146,0.14182 1.21649,0.48135 1.69166,0.73522c0.44102,0.25727 0.98078,0.45496 1.18607,0.45496l0,0zm-5.28401,0.95948c0.13698,0 0.33855,-0.05601 0.47516,-0.1418c0.23574,-0.19771 0.03453,-0.19771 -0.40649,0c-0.20158,0.08579 -0.23572,0.11219 -0.06867,0.1418zm-0.37234,-0.70561c0.33819,-0.11525 1.42179,-0.22747 2.40628,-0.22747c1.85873,-0.0264 2.23143,-0.11202 1.48638,-0.2835c-0.23571,-0.05601 -0.77548,-0.19786 -1.21649,-0.33953c-0.7792,-0.25387 -2.37213,-0.16822 -2.53918,0.1153c-0.03452,0.05616 -0.20529,0.08579 -0.3727,0.05616c-0.33819,-0.0858 -0.67675,0.14169 -0.7792,0.59342c-0.13698,0.36591 0.10246,0.39569 1.01493,0.08562zm-2.7066,0.6496c0.06831,0.22749 0.40686,0.25387 0.67675,0.05601c0.16704,-0.11204 0.16704,-0.16805 0,-0.33951c-0.13698,-0.16825 -0.23572,-0.16825 -0.44101,-0.0264c-0.13698,0.08244 -0.23574,0.22411 -0.23574,0.3099l0,0zm-1.08324,1.97822c0.13291,0 0.20121,0.08566 0.13291,0.25389c-0.03045,0.11542 -0.13291,0.22747 -0.20158,0.22747c-0.10246,0 -0.16705,-0.11205 -0.16705,-0.22747c0,-0.13845 0.09875,-0.25389 0.23572,-0.25389z" fill="#0f7f0e"/>
       <path stroke="#000" id="svg_3" d="m53.36096,27.50184l-4.01892,-3.2978l0,-7.87617l-3.51551,0l0.07015,5.04902l-8.03916,-6.59668l-15.50344,12.72163l3.6908,-0.07216l0,12.86164l23.46123,0l0,-12.78948l3.85486,0zm-15.50344,12.83095l-7.58576,-0.05878l-0.07015,-9.36128l7.65591,0l0,9.42007zm9.89333,-5.17081l-7.48617,0.05878l0,-6.76331l7.48617,0l0,6.70452z" fill="url(#svg_4)"/>
      </g>
      <text stroke="#000" transform="matrix(0.164821 0 0 0.106704 8.47926 66.8098)" xml:space="preserve" text-anchor="start" font-family="'Red Rose'" font-size="25" stroke-width="0" id="svg_6" y="-409.7417" x="143.82484" fill="#d14040">Home</text>
     </g>
     <rect stroke="#000" opacity="0.61" id="svg_8" height="6.75986" width="7.57634" y="28.41773" x="40.25207" stroke-width="0" fill="#ffff56"/>
    </g>
    <rect stroke="#000" opacity="0.87" id="svg_10" height="9.4638" width="7.64649" y="30.88654" x="30.22043" stroke-width="0" fill="#562a01"/>
   </g>
   <path stroke="#000" fill="#ffff00" d="m46.53973,10.26282l-1.1747,0.32484l0,-0.64934l1.1747,0.3245zm-0.85293,-1.60017l-0.53517,0.87559l-0.59058,-0.45941l1.12575,-0.41617l0,0zm-2.05835,-0.66266l0.41768,0.91329l-0.83558,0l0.4179,-0.91329l0,0zm-2.05857,0.66266l1.12619,0.41617l-0.5908,0.45941l-0.53539,-0.87559l0,0zm-0.85271,1.60017l1.17493,-0.3245l0,0.64934l-1.17493,-0.32484zm0.85271,1.60017l0.53539,-0.87524l0.5908,0.45924l-1.12619,0.416l0,0l0,0zm2.05857,0.66318l-0.4179,-0.91347l0.83558,0l-0.41768,0.91347l0,0zm2.05835,-0.66318l-1.12597,-0.41583l0.59058,-0.45924l0.53539,0.87507zm-3.51387,-1.60017l0,0c0,-0.62478 0.65177,-1.13141 1.45575,-1.13141c0.80376,0 1.45575,0.50664 1.45575,1.13141c0,0.62495 -0.65199,1.13158 -1.45575,1.13158c-0.8042,0 -1.45575,-0.50664 -1.45575,-1.13158l0,0z" id="svg_2" stroke-width="0"/>
  </g>
 </g>
 <defs>
  <radialGradient spreadMethod="pad" id="svg_4">
   <stop offset="0" stop-opacity="0.99609" stop-color="#1233ea"/>
   <stop offset="1" stop-opacity="0.99609" stop-color="#6269ef"/>
  </radialGradient>
 </defs>
</svg>