<svg width="50" height="50" xmlns="http://www.w3.org/2000/svg">
 <g id="Layer_1">
  <title>Layer 1</title>
  <g stroke="null" id="svg_20">
   <path stroke="#000" id="svg_15" d="m25.66478,2.41595c-12.71996,0 -23.03125,10.44092 -23.03125,23.32077c0,12.87986 10.31129,23.32077 23.03125,23.32077c12.71996,0 23.03125,-10.44092 23.03125,-23.32077c0,-12.87986 -10.31129,-23.32077 -23.03125,-23.32077zm18.12202,25.55112c0.00158,0.00321 0.00634,0.00321 0.00792,0.00642c-0.03486,0.30005 -0.08557,0.59369 -0.13469,0.88893c-0.02377,-0.01925 -0.05388,-0.04011 -0.07448,-0.05776c-0.16322,-0.14441 -0.4025,-0.20538 -0.50392,-0.18453c-0.24879,0.05135 0.36288,0.48939 0.4231,0.54876c0.01426,0.01444 0.04912,0.04814 0.09825,0.09306c-1.6306,8.52346 -9.04675,14.98344 -17.93661,14.98344c-6.5335,0 -12.25882,-3.49796 -15.4915,-8.73045c0.19491,-0.02567 0.38032,-0.02567 0.4437,-0.12195c0.08082,-0.12355 0.16163,-0.3867 0.28207,-0.53111c0.12202,-0.14281 0.26147,-0.36745 0.20125,-0.46853c-0.0618,-0.10269 0.16005,-0.55197 0.13945,-0.67231c-0.0206,-0.12195 -0.20125,-0.41077 0.10142,-0.65306s0.62435,-0.61294 0.64495,-0.71243c0.01902,-0.10109 0.26305,-0.53111 0.24087,-0.73489c-0.01902,-0.20378 -0.24087,-0.44928 -0.38032,-0.51025c-0.14262,-0.05937 -0.4437,-0.08023 -0.56413,-0.24229c-0.12202,-0.16527 -0.46272,-0.32573 -0.58315,-0.28561c-0.12043,0.04011 -0.32327,0.08023 -0.48332,-0.02407c-0.16163,-0.09948 -0.4231,-0.22303 -0.52293,-0.30326c-0.103,-0.08023 -0.36288,-0.1412 -0.48332,-0.1412c-0.12202,0 -0.103,-0.08344 -0.28207,0.16206c-0.18065,0.2455 0,0.32733 -0.32327,0.28401c-0.32327,-0.03691 0.03962,-0.05776 0.22344,-0.30326c0.17907,-0.24389 -0.0206,-0.38831 -0.22344,-0.32573c-0.19967,0.06097 -0.06022,0.18453 -0.3819,0.2455c-0.32168,0.05776 -0.32168,-0.14441 -0.12043,-0.18453s0.56255,-0.22303 0.56255,-0.30487c0,-0.08183 -0.03962,-0.30647 -0.20125,-0.30647s-0.12202,-0.20218 -0.36288,-0.46693c-0.14579,-0.16206 -0.31059,-0.26315 -0.47381,-0.32733c-0.14262,-0.92904 -0.2377,-1.87253 -0.2377,-2.84169c0,-4.56339 1.64645,-8.73847 4.35936,-11.96686c0.03803,-0.03209 0.07606,-0.05456 0.10934,-0.05776c0.13311,-0.01444 0.49124,-0.04011 0.80817,-0.09467c0.3201,-0.05456 0.66238,-0.25834 0.77489,-0.2455c0.10934,0.01284 0.3819,0.01284 0.29474,-0.06739c-0.08874,-0.09146 -0.21234,-0.2808 -0.39616,-0.2808s-0.01268,-0.29845 0.03645,-0.29845c0.04754,0 0.29474,0.04011 0.28207,0.1765c-0.01109,0.13639 0.07448,0.31129 0.31851,0.25834c0.2472,-0.05456 0.20917,-0.25994 0.16163,-0.31289c-0.05071,-0.05456 -0.08716,-0.19094 -0.13469,-0.28561c-0.04912,-0.09627 -0.03645,-0.21822 0.22185,-0.2455c0.25671,-0.02567 0.61167,0.10751 0.599,-0.10911s0,-0.44928 0.07289,-0.57123c0.07448,-0.12034 0.23453,-0.20378 0.14737,-0.24389c-0.08399,-0.04011 -0.19491,0.05456 -0.28207,-0.14922c-0.08557,-0.20378 0.07448,-0.353 0.17114,-0.43484c0.03169,-0.02407 0.10617,-0.09627 0.1965,-0.17971c2.98072,-2.13728 6.60956,-3.40649 10.53314,-3.40649c5.09147,0 9.70121,2.12284 13.01629,5.53575c-0.01268,0.0353 -0.01585,0.08344 -0.04912,0.08986c-0.12202,0.02086 -0.26305,0.10109 -0.28365,-0.08183c-0.0206,-0.18292 -0.0206,-0.53111 -0.16163,-0.32573c-0.14103,0.20378 -0.20125,0.20378 -0.20125,0.30647c0,0.10109 0.12043,0.20378 0.08082,0.3867c-0.0412,0.18292 -0.0412,0.30647 0.02219,0.30647c0.05705,0 0.19967,-0.18453 0.37873,-0.22624c0.18382,-0.04011 0.5055,-0.1412 0.5261,0.04172c0.0206,0.18453 0.22027,0.24389 0.0206,0.32573c-0.20283,0.08183 -0.4231,0.04172 -0.4643,-0.08183c-0.03962,-0.12355 -0.18065,-0.12355 -0.32168,-0.02086c-0.13945,0.10109 -0.44212,0.46853 -0.44212,0.46853s-0.4849,0.22303 -0.54353,0.18292c-0.06339,-0.04011 0.16005,-0.26475 0.32168,-0.36584c0.16163,-0.10269 0.28207,-0.32733 0.22185,-0.38831c-0.06022,-0.06097 -0.13945,-0.44767 -0.09983,-0.55037c0.03962,-0.10109 0.22027,-0.24389 0.0206,-0.34659c-0.20125,-0.10109 -0.34387,-0.22464 -0.50392,-0.28561s-0.34228,0.24389 -0.48332,0.32733c-0.14103,0.08183 -0.12043,0.18292 -0.30267,0.20378c-0.18065,0.02086 -0.2995,0.26475 0,0.40756c0.30267,0.14281 0.40408,0.24389 0.32327,0.32733c-0.08082,0.08183 -0.4231,-0.04011 -0.4231,-0.04011s-0.26147,-0.12195 -0.42469,-0.12195c-0.16005,0 -0.36288,-0.10109 -0.52293,-0.12195c-0.16163,-0.02086 -0.4849,-0.02086 -0.56255,0.06097c-0.08082,0.08183 -0.28365,0.32573 -0.4437,0.24389c-0.16005,-0.08183 -0.16005,-0.16367 -0.3819,-0.08183c-0.22185,0.08183 -0.44212,-0.06097 -0.56255,0.06097c-0.12202,0.12195 -0.0206,0.12195 -0.40408,0c-0.3819,-0.12195 -0.2995,0.08183 -0.66397,0.14281s-0.58315,-0.06097 -0.68457,0.06097c-0.10142,0.12355 -0.24245,0.34819 -0.30108,0.20378c-0.06022,-0.1412 0.19967,-0.3867 0.09825,-0.46853c-0.09825,-0.08183 -0.52293,-0.04011 -0.58157,0.02086c-0.0618,0.06097 -0.02219,0.28561 0.01743,0.36745c0.0412,0.08023 0.10142,0.40756 -0.01743,0.34659c-0.12202,-0.06097 -0.10142,-0.26636 -0.22344,-0.24389c-0.12043,0.02086 -0.26147,0.08183 -0.32168,0.12355c-0.06022,0.04011 -0.30267,0.04011 -0.36288,0.12195c-0.05863,0.08183 0.02219,0.30647 -0.08082,0.32573c-0.09983,0.02086 -0.18065,0.10269 -0.4025,-0.04011c-0.22185,-0.14281 -0.22185,-0.06097 -0.28207,-0.01925c-0.06022,0.04011 -0.34228,0.20378 -0.36288,0.01925c-0.0206,-0.18292 0.03962,-0.24389 -0.14103,-0.36745c-0.18223,-0.12195 -0.0412,-0.12195 0.20125,-0.04011c0.24087,0.08023 0.54353,0.12034 0.98565,-0.02086c0.4437,-0.14281 0.62594,-0.20378 0.4437,-0.28561c-0.18223,-0.08023 -0.36288,-0.16206 -0.64337,-0.20378c-0.28365,-0.04011 -0.66555,-0.04011 -1.10925,-0.20378c-0.44212,-0.16367 -0.54353,-0.22464 -0.72418,-0.26475c-0.18223,-0.04172 -1.28832,-0.22464 -1.79382,-0.14281c-0.50233,0.08183 -1.89048,0.44928 -1.97288,0.51025s-0.20283,0.30487 -0.46272,0.51025c-0.26147,0.20378 -0.74478,0.67231 -1.12827,0.75415c-0.3819,0.08183 -0.8256,0.40756 -0.8256,0.48939c0,0.08183 0.16005,0.38831 0.12043,0.44928c-0.03962,0.06097 0.07923,0.36745 0.30267,0.44928c0.22027,0.08023 0.60375,0.06097 0.62277,-0.06258c0.02219,-0.12195 0.32327,-0.3867 0.34387,-0.20378c0.0206,0.18453 0.22185,0.46853 0.18065,0.59048c-0.03962,0.12355 0,0.2455 0.14262,0.22464c0.13945,-0.01925 0.88582,-0.18292 0.88582,-0.18292s0.24245,-0.10269 0.20125,-0.26636c-0.0412,-0.16206 0.26305,-0.3867 0.32168,-0.44767c0.06022,-0.06097 0.28207,-0.30647 0.02219,-0.3867c-0.26464,-0.08183 -0.4643,-0.10269 -0.18223,-0.34659s0.46272,0 0.8256,-0.36745c0.36288,-0.36745 -0.08082,-0.46853 0.30267,-0.48939c0.3819,-0.02086 0.78598,-0.04011 0.70358,0.08183c-0.07923,0.12195 -0.54195,0.38831 -0.805,0.51025c-0.26305,0.12355 -0.22185,0.34659 -0.12043,0.46853c0.09983,0.12195 0.14262,0.40756 0.32327,0.36745c0.17907,-0.04011 0.4025,-0.18292 0.60217,-0.16206c0.20283,0.01925 0.60692,-0.02086 0.66555,-0.02086c0.0618,0 0.34228,0.28561 0.18065,0.32573c-0.16005,0.04011 -0.36288,0.02086 -0.70517,0.04011c-0.3407,0.02086 -0.7226,0.02086 -0.7226,0.08183c0,0.06258 0.46272,0.20378 0.30108,0.30647c-0.16163,0.10109 -0.32168,-0.02086 -0.52452,-0.04172c-0.20125,-0.01925 -0.32168,0.26636 -0.3819,0.42842c-0.0618,0.16367 0.09983,0.44928 -0.20125,0.34659c-0.30267,-0.10109 -0.52452,-0.10109 -0.60375,-0.06097c-0.08082,0.04011 -0.32168,0.12195 -0.52452,0.18292c-0.19967,0.06097 -0.12043,-0.10109 -0.38348,-0.10109c-0.25988,0 -0.25988,0 -0.25988,0l-0.16322,0.02086c0,0 -0.16005,-0.10109 -0.18065,-0.26475c-0.0206,-0.16367 0.07923,-0.34659 -0.0206,-0.3867c-0.10142,-0.04172 -0.46272,0.01925 -0.52293,0.1412c-0.06022,0.12195 -0.12202,0.34659 -0.0412,0.44928c0.0824,0.10109 0.32327,0.30487 0.10142,0.24389c-0.22185,-0.06097 -0.50233,-0.08183 -0.66397,0.04172c-0.16005,0.12195 -0.44212,0.3867 -0.44212,0.3867s-0.50392,0.04011 -0.50392,0.16367c0,0.12355 0,0.28561 -0.18065,0.30647c-0.18223,0.02086 -0.42469,0.08023 -0.66555,0.12195c-0.24245,0.04011 -0.22027,0.1412 -0.50233,0.16367s-0.32327,0.14281 -0.06022,0.18292c0.26147,0.04011 0.66238,0.20378 0.68298,0.3867c0.02219,0.18292 -0.0206,0.38831 -0.12043,0.57123c-0.06814,0.12676 -0.48332,0.04172 -0.72577,0.04172c-0.24087,0 -0.7226,-0.08183 -0.92543,0c-0.20125,0.08183 -0.16163,0.48939 -0.10142,0.67231c0.0618,0.18292 -0.01902,0.28561 -0.09983,0.34659c-0.08082,0.06097 -0.103,0.24389 0,0.32733c0.09983,0.08183 0.18065,0.26475 0.26305,0.28561c0.08082,0.02086 0.3407,-0.06097 0.44212,0.04011c0.10142,0.10269 0.20125,0.34659 0.26147,0.28561c0.0618,-0.06097 0.14103,-0.32573 0.24245,-0.26636c0.10142,0.06258 0.34228,-0.01925 0.52452,-0.04011s0.28048,-0.22464 0.46272,-0.32733c0.18065,-0.10109 0.07923,-0.10109 0.0206,-0.22464c-0.06022,-0.12195 0.18065,-0.26475 0.32327,-0.40756c0.13945,-0.14281 0.40092,-0.02086 0.46272,-0.18453c0.06022,-0.16367 0.08082,-0.44767 0.23928,-0.42842c0.16322,0.02086 0.38507,0.12195 0.52452,0.12195c0.14103,0 0.44212,-0.22464 0.5261,-0.26475c0.07923,-0.04011 0.3819,-0.02086 0.4231,0.16367c0.03962,0.18292 0.3819,0.40756 0.46272,0.44767c0.08082,0.04011 0.60375,0.20378 0.68615,0.26475c0.07923,0.06097 0.19967,0.2455 0.24087,0.40756c0.03962,0.16367 0.18065,0.16367 0.20283,0.02086c0.01902,-0.14281 -0.103,-0.40756 0.03962,-0.38831c0.13945,0.02086 0.30267,-0.04172 0.30267,-0.04172s-0.38507,-0.26475 -0.52452,-0.32573c-0.13945,-0.06097 -0.40408,-0.18292 -0.52452,-0.3867c-0.12043,-0.20378 -0.4231,-0.2455 -0.4025,-0.44767c0.0206,-0.20378 0.30267,-0.08183 0.46272,0.08183c0.16163,0.16367 0.56413,0.3867 0.70517,0.52951c0.13945,0.14281 0.36288,0.20378 0.4231,0.38831c0.0618,0.18292 0.24087,0.3867 0.30108,0.46853c0.06022,0.08183 0.26147,0.53111 0.32327,0.6322c0.06022,0.10109 0.26147,-0.01925 0.36288,-0.10109c0.09983,-0.08183 0.28365,-0.12195 0.30267,-0.28561c0.0206,-0.16367 -0.24245,-0.28561 -0.32168,-0.34659c-0.08082,-0.06097 0.20125,-0.12195 0.30267,-0.20378c0.09983,-0.08023 0.28048,-0.22464 0.3613,-0.10109c0.08082,0.12355 0.0412,0.61134 0.08082,0.69317c0.03962,0.08183 0.44212,0.20378 0.52452,0.30647c0.07923,0.10109 0.4231,0.14281 0.48173,0.08183c0.0618,-0.06097 0.38348,0.04172 0.46589,0.06097c0.07765,0.02086 0.3201,-0.04011 0.48173,-0.08023c0.16322,-0.04011 0.32327,-0.16367 0.30267,0.10109c-0.0206,0.26475 -0.08082,0.67231 -0.28365,0.87609c-0.20125,0.20378 -0.12043,0.30647 -0.3201,0.30647c-0.09508,0 -0.17907,0 -0.2472,0.0337c-0.06497,-0.1043 -0.1553,-0.18773 -0.27731,-0.15564c-0.24087,0.06097 -0.54512,0.06097 -0.74478,0.30487c-0.20283,0.2455 -0.28207,0.26475 -0.32327,0.18292c-0.03962,-0.08183 0.58473,-0.42842 0.50233,-0.53111c-0.07923,-0.10109 -0.56255,-0.06097 -0.8256,-0.06097c-0.26305,0 -0.48332,-0.16367 -0.68615,-0.20378c-0.19967,-0.04011 -0.46272,0.20378 -0.66238,0.40756c-0.20283,0.20378 -0.34228,0.06097 -0.52452,0.06097c-0.18223,0 -0.52452,-0.26475 -0.52452,-0.26475s-0.34228,-0.14281 -0.48332,-0.14281c-0.13945,0 -0.4231,-0.26475 -0.50392,-0.26475c-0.07923,0 -0.30108,-0.18453 -0.13945,-0.26636c0.16005,-0.08023 0.3201,0.08183 0.16005,-0.36745c-0.16005,-0.44767 -0.52293,-0.34659 -0.66397,-0.28561c-0.13945,0.06258 -1.14728,0.04011 -1.2281,0.04011c-0.08082,0 -0.66397,0.20378 -0.84462,0.28561c-0.18382,0.08183 -0.50392,0.18453 -0.58473,0.22464c-0.08082,0.04011 -0.50392,-0.08183 -0.68615,0.02086c-0.23928,0.13478 -0.46113,0.34659 -0.52293,0.34659c-0.06022,0 -0.24245,0.14281 -0.36288,0.44928c-0.12202,0.30487 0.0206,0.56962 -0.20283,0.67231c-0.22027,0.10109 -0.62435,0.32733 -0.7844,0.48939c-0.16163,0.16206 -0.36288,0.73489 -0.56255,0.99965c-0.20125,0.26475 0,0.50865 0.03962,0.67231c0.03962,0.16206 0.18065,0.46853 -0.03962,0.75575c-0.22185,0.28561 -0.20125,0.42681 -0.30267,0.44767c-0.09983,0.02086 0.09983,0.10109 0.13945,0.30487c0.03962,0.20538 -0.18065,0.40916 0.20283,0.59209c0.3819,0.18132 0.56255,0.34819 0.66238,0.58888c0.10142,0.2455 0.60533,0.65306 0.60533,0.65306s0.36288,0.32894 0.54512,0.47014c0.18065,0.14281 0.24087,0.06097 0.28048,-0.08023c0.03962,-0.14441 0.28207,-0.16687 0.56255,-0.16687c0.28207,0 0.48332,0.06418 0.76538,0.02246c0.28207,-0.04011 0.56413,-0.22624 0.66555,-0.26636c0.09983,-0.04011 0.44212,-0.26315 0.702,-0.10109c0.26305,0.16527 0.22344,0.3867 0.36447,0.53272c0.13945,0.1412 0.38032,0.05937 0.56255,-0.08183c0.18065,-0.14441 0.10142,-0.08344 0.32168,0.04011c0.22185,0.12034 0.32327,0.24229 0.12202,0.42842c-0.20283,0.18132 -0.08082,0.47014 -0.20283,0.75415c-0.12043,0.28561 -0.09983,0.32573 0.12202,0.44607c0.22185,0.12195 0.62435,0.8793 0.74478,1.02371c0.12202,0.1412 -0.03962,0.54876 0.10142,0.79426c0.14103,0.24229 0.28207,0.40756 0.12202,0.53111c-0.16322,0.12034 -0.4437,0.34659 -0.46272,0.75415s0.08082,0.69157 0.16163,0.83598s0.28048,0.53111 0.3819,0.67231c0.10142,0.14281 0.22185,0.48939 0.24087,0.71403c0.0206,0.22464 -0.03803,0.491 0.0618,0.61134c0.10142,0.12195 0.16163,0.30647 0.34228,0.46853c0.18223,0.16527 0.24087,0.51025 0.24087,0.51025s0.0618,0.14281 0.08082,0.36745c0.01902,0.22464 0.03962,0.36584 0.24087,0.46853c0.19967,0.10109 0.3407,0.12195 0.4437,0.02086c0.09983,-0.10109 0.60375,-0.12355 0.86522,-0.10109c0.26147,0.02086 0.56255,-0.12034 0.8256,-0.30487s0.64495,-0.67231 0.78598,-0.81512c0.14103,-0.14441 0.46272,-0.40916 0.42469,-0.57123c-0.03962,-0.16206 -0.12202,-0.32573 0.03803,-0.40756c0.16163,-0.08344 0.54512,-0.24389 0.56413,-0.36745c0.0206,-0.12355 -0.14262,-0.6338 -0.18223,-0.73329c-0.03803,-0.10269 0.10142,-0.28882 0.26147,-0.491c0.16322,-0.20538 0.66714,-0.34659 0.74637,-0.42842c0.08082,-0.08504 0.30267,-0.42842 0.34387,-0.69478c0.03803,-0.26796 -0.08082,-0.59209 0,-0.73329c0.07923,-0.14441 0.0206,-0.26475 -0.16322,-0.43002c-0.18065,-0.16367 -0.14103,-0.65306 -0.20125,-0.73329c-0.05863,-0.08183 -0.0206,-0.51186 0.09983,-0.55358c0.12043,-0.03691 0.38348,-0.44767 0.54512,-0.63059c0.16163,-0.18292 0.62435,-0.75415 0.8462,-0.79587c0.22027,-0.04011 0.56255,-0.36745 0.58315,-0.55037c0.0206,-0.18453 0.60217,-0.8777 0.62435,-1.0189c0.0206,-0.14441 0.26305,-0.67392 0.16163,-0.79747c-0.09825,-0.12195 -0.88582,0.18453 -0.98565,0.22624c-0.10142,0.04011 -0.3819,0.20378 -0.70675,0.18132c-0.3201,-0.02086 -0.18065,-0.28401 -0.20125,-0.40756c-0.01902,-0.12195 -0.3613,-0.59048 -0.44212,-0.61134c-0.08082,-0.01925 -0.32168,-0.26636 -0.4231,-0.50865c-0.09983,-0.2455 -0.24087,-0.55037 -0.4025,-0.73489c-0.16163,-0.18292 -0.26147,-0.60974 -0.42469,-0.89695c-0.16005,-0.28561 -0.2995,-0.65306 -0.44212,-0.91781c-0.03328,-0.06579 -0.07131,-0.12676 -0.10617,-0.18773c0.18699,-0.04653 0.45796,-0.13157 0.49124,-0.01444c0.03803,0.1412 0.26147,0.44767 0.30108,0.67231s0.26147,0.14281 0.28207,0.34659c0.02219,0.20538 0.22185,0.69478 0.30108,0.75415c0.0824,0.06097 0.4437,0.38831 0.50392,0.51025c0.06022,0.12195 0.14103,0.28561 0.20125,0.59209c0.06022,0.30487 0.12043,0.71243 0.28365,0.7734c0.16163,0.06097 0.70358,-0.10269 0.805,-0.16367s0.7638,-0.38831 1.00625,-0.40916c0.24245,-0.01925 0.28365,-0.18453 0.58315,-0.24389c0.30267,-0.06097 0.52452,-0.28401 0.72577,-0.44928c0.20125,-0.16206 0.4437,-0.56962 0.52293,-0.71243c0.0824,-0.1412 0.28365,-0.24389 0.18223,-0.40596c-0.09983,-0.16527 -0.52452,-0.40756 -0.68615,-0.43002c-0.16163,-0.01925 -0.14103,-0.28561 -0.24087,-0.28561s-0.08082,0.1412 -0.28207,0.2455c-0.20125,0.10109 -0.40408,0.30487 -0.54512,0.26475s0.0412,-0.14281 -0.17907,-0.32573s-0.30425,-0.22464 -0.30425,-0.36584c0,-0.14281 -0.44053,-0.40916 -0.48173,-0.61294c-0.0412,-0.20378 0.30108,-0.48939 0.4025,-0.30487c0.09983,0.18292 0.18223,0.46853 0.44212,0.59048c0.26147,0.12195 0.50392,0.32733 0.62594,0.36745c0.12043,0.04011 0.4231,-0.22464 0.52293,-0.18292c0.09983,0.03851 0.30267,0.40596 0.4849,0.46853c0.17907,0.06097 0.7844,0.08183 0.88582,0.08183s0.52293,0.02086 0.60375,-0.10109c0.08082,-0.12195 0.14103,-0.12195 0.24245,-0.12195c0.09825,0 0.28048,0.36745 0.4231,0.40756c0.14103,0.04011 0.4025,0.02086 0.3819,0.28722c-0.01902,0.26315 0.12043,0.48939 0.26147,0.50865c0.14262,0.01925 0.4643,-0.30647 0.4643,-0.30647s0,0.51025 -0.01902,0.69478c-0.02219,0.18132 0.22027,0.85684 0.22027,0.85684s0.30108,0.63059 0.3819,0.7734s0.4231,0.56962 0.4231,0.75415c0,0.18453 0.03962,0.47014 0.16322,0.47014c0.12043,0 0.24087,-0.32573 0.38032,-0.53111c0.1442,-0.20218 0.18382,-0.48939 0.24245,-0.69317c0.06022,-0.20378 0.06022,-0.57123 0.06022,-0.71243c0,-0.14441 0.11885,-0.26636 0.40408,-0.38831c0.28207,-0.12195 0.48173,-0.46853 0.7226,-0.65306c0.24245,-0.18453 0.22344,-0.48939 0.70675,-0.48939c0.48332,0 0.44053,0 0.56255,-0.12355c0.12043,-0.12195 0.23928,-0.20378 0.30108,0.02086c0.06022,0.22464 0.4025,0.55037 0.46272,0.6322c0.06022,0.08344 0.18065,0.30647 0.16322,0.55197c-0.0206,0.24389 0.01902,0.52951 0.11885,0.52951s0.30267,-0.34659 0.30267,-0.34659s0.44212,-0.30326 0.4231,0.02086c-0.02219,0.32573 0.03962,0.67231 0.03962,0.87449c0,0.08504 0.06656,0.21662 0.13945,0.33696c-0.00792,0.09467 -0.00634,0.19094 -0.01426,0.28561c-0.1442,0.03851 -0.14579,0.3177 -0.06814,0.41879zm-11.1781,-8.54592c0.12043,0.08023 0.16163,0.20378 0.24087,0.32573c0.0824,0.12195 0.22185,0.08023 0.32168,0.18292c0.09983,0.10269 -0.28207,0.22464 -0.11885,0.34659c0.16005,0.12355 0.23928,0.61134 0.26147,0.73489c0.0206,0.12195 -0.44212,0.18292 -0.58473,0.16367c-0.14103,-0.02086 -0.56096,-0.16367 -0.70517,-0.20378c-0.14103,-0.04172 -0.22027,-0.55037 -0.03962,-0.53111c0.18382,0.02086 0.22344,-0.04011 0.4231,-0.22303c0.20283,-0.18453 -0.2995,-0.26636 -0.44053,-0.30647c-0.14103,-0.04011 -0.42469,-0.48939 -0.52452,-0.6322c-0.09825,-0.14281 -0.02219,-0.36584 0.22344,-0.53111c0.12043,-0.08183 0.44212,0.10109 0.60375,0c0.16005,-0.10109 0.32168,-0.22464 0.3819,-0.26475c0.0618,-0.04011 0.4643,0.06097 0.52293,0.18292c0.0618,0.12195 0.30267,0.30647 0.22344,0.36745c-0.0824,0.06097 -0.44529,0.12195 -0.56413,0c-0.11885,-0.12355 -0.40408,0.01925 -0.42469,0.24389c-0.02219,0.22624 0.08082,0.06258 0.19967,0.14441zm-5.55735,0.34659c-0.12202,-0.04011 0.03962,-0.28561 0.16163,-0.36745c0.11885,-0.08183 0.25988,-0.28561 0.3819,-0.48939c0.12043,-0.20378 0.28207,-0.22464 0.3819,-0.20378c0.09983,0.02086 0.32168,0.3867 0.3819,0.51025c0.06022,0.12195 0.26147,-0.04172 0.34387,-0.08183c0.07923,-0.04011 0.20125,-0.16367 0.22185,-0.26475s0.20125,-0.16367 0.4025,-0.16367s0.0206,0.16367 -0.12043,0.20378c-0.14262,0.04011 -0.06022,0.12355 0.17907,0.20378c0.24245,0.08183 0.4643,0.30647 0.72735,0.44767c0.26147,0.14281 0.30108,0.42842 0.13945,0.46853c-0.16005,0.04011 -0.64337,0.08183 -0.8256,0.06097c-0.18065,-0.02086 -0.4025,-0.20378 -0.66397,-0.2455c-0.26147,-0.04011 -0.58473,-0.02086 -0.68615,0.12355s-0.46272,0.08023 -0.62594,0.08023c-0.16163,0 -0.3613,0.20378 -0.40092,0.12355c0.00158,0.0016 0.12202,-0.36424 0.00158,-0.40596zm0.68457,-4.52809c0.09983,-0.28561 0.66397,0.06097 0.56255,0.20378c-0.09983,0.14441 -0.63069,-0.00963 -0.56255,-0.20378zm0.7844,14.64328c0.09983,0.16367 -0.22185,0.69157 -0.4025,0.65306c-0.17907,-0.04332 -0.12043,-0.51025 -0.06022,-0.61294c0.06022,-0.10269 0.41042,-0.12837 0.46272,-0.04011zm-7.30997,-9.48299c0.03962,-0.08183 -0.0618,-0.2455 -0.20125,-0.02086c-0.04754,0.07862 0.16163,0.10269 0.20125,0.02086zm12.08134,-7.44358c0.22344,0.12195 0.5372,0.17169 0.68615,0.02086c0.12043,-0.12195 0.0206,-0.32733 -0.07923,-0.34659c-0.10142,-0.02086 -0.1648,-0.18453 0.09825,-0.32573c0.26147,-0.14281 0.54353,-0.32733 0.8462,-0.36745c0.30108,-0.04011 0.98565,-0.06097 1.22652,0c0.24087,0.06258 0.60533,-0.26636 0.70517,-0.40756s-0.32168,-0.24389 -0.44212,-0.08183c-0.12202,0.16367 -0.70358,0.12195 -0.8256,0.08183c-0.12043,-0.04011 -1.08707,0.16367 -1.28673,0.16367c-0.20283,0 -0.28365,0.24389 -0.56413,0.36745c-0.28365,0.12195 -0.66555,0.30647 -0.80659,0.36745c-0.13945,0.06097 -0.28048,0.30487 -0.16005,0.34659c0.12043,0.04011 0.3819,0.05937 0.60217,0.18132zm-10.57118,7.44358c0.10142,-0.14281 -0.08082,-0.34819 -0.18065,-0.34819c-0.19016,0 -0.28207,0.30647 -0.16322,0.40756c0.12202,0.1043 0.24245,0.08344 0.34387,-0.05937zm0.90642,0.55037c0.10142,0.04011 0.18065,0.16367 0.26147,0.18292c0.0824,0.02086 0.34387,0 0.26464,-0.20378s-0.26464,-0.20378 -0.32327,-0.20378c-0.06022,0 -0.32168,-0.06097 -0.4231,0c-0.07448,0.04493 0.11885,0.18453 0.22027,0.22464zm-5.39731,-3.3038c0.16005,0.02086 0.34387,-0.10109 0.48332,-0.16206c0.13945,-0.06097 0.34228,-0.18292 0.34228,-0.36745c0,-0.18292 -0.03962,-0.34659 -0.12202,-0.42842c-0.08082,-0.08183 -0.22185,-0.10269 -0.34228,-0.08183c-0.18223,0.03209 -0.20125,0.22464 -0.32168,0.22464c-0.12043,0 -0.26147,0.04011 -0.22185,0.18292s0.12202,0.24389 0,0.30487c-0.12043,0.06258 0.01902,0.30808 0.18223,0.32733zm0.98723,-0.87609c0.20125,0.08183 0.62435,0.16367 0.46272,0.2455c-0.16163,0.08183 -0.4437,0.30487 -0.48332,0.42842s0.34228,0.2455 0.34228,0.2455s-0.12202,0.14281 -0.0206,0.18292c0.09983,0.04011 0.16163,-0.14281 0.32168,-0.14281c0.16005,0 0.48173,0.10109 0.64337,0.10109c0.16322,0 0.4231,-0.22464 0.4025,-0.36745c-0.0206,-0.14281 -0.22185,-0.36745 -0.4025,-0.44928c-0.17907,-0.08183 -0.3819,-0.44928 -0.50233,-0.53111c-0.12043,-0.08183 0.12043,-0.28561 -0.0206,-0.42842c-0.14262,-0.14281 -0.24245,-0.12195 -0.40408,-0.22464c-0.16163,-0.10109 -0.30267,0.02086 -0.4025,0.14281c-0.09983,0.12195 -0.22185,-0.02086 -0.34387,0.01925c-0.16163,0.05616 -0.09983,0.26636 -0.01902,0.36745c0.0824,0.1043 0.22502,0.32894 0.42627,0.41077zm20.2803,10.88859c-0.13153,0.05937 -0.24245,0.75415 0,0.83598c0.24087,0.08344 0.3819,-0.32412 0.30267,-0.42842c-0.0824,-0.09948 -0.12202,-0.48939 -0.30267,-0.40756zm-7.31314,5.24051c-0.25196,-0.07221 -0.28048,0.26636 -0.48173,0.491c-0.20283,0.22624 -0.4231,0.40756 -0.50233,0.3867c-0.0824,-0.02086 -0.52452,0.14281 -0.38348,0.44767c0.14103,0.30647 0.12043,0.61294 -0.0206,0.75736c-0.14103,0.1412 0.12043,0.54876 0.0824,0.7734c-0.0412,0.22303 0.05863,0.36745 0.3407,0.36745s0.38348,-0.10269 0.50392,-0.36745c0.12043,-0.26636 0.13945,-0.53111 0.25988,-0.75415c0.12202,-0.22624 0.22344,-0.69638 0.28365,-0.81833c0.06022,-0.12034 0.18065,-0.50704 0.16163,-0.73329c-0.02219,-0.22143 -0.10142,-0.51025 -0.24404,-0.55037zm-15.40752,-18.71246c-0.10934,-0.09627 -0.36288,-0.16367 -0.4849,-0.1765c-0.12043,-0.01284 -0.24087,0.09627 -0.50867,0.09627c-0.26622,0 -0.44212,0.10751 -0.54987,0c-0.10776,-0.10911 -0.55304,-0.16367 -0.59424,-0.09627c-0.05388,0.09146 -0.16005,0.09467 -0.05388,0.28561c0.10934,0.18934 0.19016,0.29845 0.28365,0.28561s0.41518,-0.02728 0.45638,0.08183c0.03962,0.10911 0.14896,0.20378 0.37556,0.13639c0.22977,-0.06739 0.41676,-0.10911 0.46906,-0.19094c0.05229,-0.08183 0.41676,-0.09467 0.41676,-0.09467s0.29633,-0.23266 0.19016,-0.32733z" opacity="NaN" fill="url(#svg_17)"/>
   <g stroke="null" id="svg_13">
    <path stroke="#000" id="svg_11" d="m46.51669,25.37089c-0.03021,2.37803 0.01933,4.75924 -0.24844,7.13308c-6.57957,-0.78089 -13.08154,-2.05862 -19.55024,-3.20768c-0.34727,1.16604 3.97336,6.71868 3.67164,7.79676c-4.15576,-2.2686 -22.6538,-9.85543 -26.80776,-11.82009c4.53882,-2.03376 22.44708,-8.86632 26.71399,-11.29789c0.13817,1.13234 -3.60821,6.27689 -3.47003,7.40924c6.2888,-1.09549 12.93942,-2.22812 19.26888,-3.22961c0.43043,2.31089 0.41778,4.82753 0.42196,7.21618z" fill="url(#svg_18)"/>
    <text stroke="#000" transform="matrix(0.104792 0 0 0.0636859 293.308 1070.65)" font-weight="bold" font-style="italic" xml:space="preserve" text-anchor="start" font-family="Noto Sans JP" font-size="87" id="svg_14" y="-16388.04881" x="-2681.18" stroke-width="0" fill="#f41d1d">Left</text>
   </g>
  </g>
 </g>
 <defs>
  <radialGradient spreadMethod="pad" id="svg_17">
   <stop offset="0" stop-opacity="0.99609" stop-color="#00bf00"/>
   <stop offset="1" stop-opacity="0.99609" stop-color="#5df75d"/>
  </radialGradient>
  <linearGradient y2="1" x2="0" y1="1" x1="1" id="svg_18">
   <stop offset="0" stop-opacity="0.99609" stop-color="#0f23ff"/>
   <stop offset="1" stop-opacity="0.98828" stop-color="#d4d7f4"/>
  </linearGradient>
 </defs>
</svg>