<svg width="50" height="50" xmlns="http://www.w3.org/2000/svg" stroke="null">
 <g id="Layer_1" stroke="null">
  <title stroke="null">Layer 1</title>
  <g stroke="null" id="svg_2">
   <g stroke="null" id="svg_20">
    <path stroke="#000" fill="url(#svg_17)" opacity="NaN" d="m25.16478,1.41595c-12.9961,0 -23.53125,10.44091 -23.53125,23.32077c0,12.87986 10.53515,23.32077 23.53125,23.32077c12.9961,0 23.53125,-10.44091 23.53125,-23.32077c0,-12.87986 -10.53515,-23.32077 -23.53125,-23.32077zm18.51544,25.55112c0.00162,0.00321 0.00648,0.00321 0.0081,0.00642c-0.03562,0.30005 -0.08743,0.59369 -0.13762,0.88893c-0.02429,-0.01925 -0.05505,-0.04011 -0.0761,-0.05776c-0.16676,-0.14441 -0.41124,-0.20538 -0.51486,-0.18453c-0.25419,0.05135 0.37076,0.48939 0.43229,0.54876c0.01457,0.01444 0.05019,0.04814 0.10038,0.09306c-1.666,8.52346 -9.24315,14.98344 -18.32601,14.98344c-6.67534,0 -12.52496,-3.49796 -15.82782,-8.73045c0.19914,-0.02567 0.38857,-0.02567 0.45333,-0.12195c0.08257,-0.12355 0.16514,-0.3867 0.28819,-0.53111c0.12467,-0.14281 0.26714,-0.36745 0.20562,-0.46853c-0.06314,-0.10269 0.16352,-0.55197 0.14248,-0.67231c-0.02105,-0.12195 -0.20562,-0.41077 0.10362,-0.65306s0.6379,-0.61294 0.65895,-0.71243c0.01943,-0.10109 0.26876,-0.53111 0.2461,-0.73489c-0.01943,-0.20378 -0.2461,-0.44928 -0.38857,-0.51025c-0.14571,-0.05937 -0.45333,-0.08023 -0.57638,-0.24229c-0.12467,-0.16527 -0.47276,-0.32573 -0.59581,-0.28561c-0.12305,0.04011 -0.33029,0.08023 -0.49381,-0.02407c-0.16514,-0.09948 -0.43229,-0.22303 -0.53429,-0.30326c-0.10524,-0.08023 -0.37076,-0.1412 -0.49381,-0.1412c-0.12467,0 -0.10524,-0.08344 -0.28819,0.16206c-0.18457,0.2455 0,0.32733 -0.33029,0.28401c-0.33029,-0.03691 0.04048,-0.05776 0.22829,-0.30326c0.18295,-0.24389 -0.02105,-0.38831 -0.22829,-0.32573c-0.204,0.06097 -0.06152,0.18453 -0.39019,0.2455c-0.32867,0.05776 -0.32867,-0.14441 -0.12305,-0.18453s0.57476,-0.22303 0.57476,-0.30487c0,-0.08183 -0.04048,-0.30647 -0.20562,-0.30647s-0.12467,-0.20218 -0.37076,-0.46693c-0.14895,-0.16206 -0.31733,-0.26315 -0.4841,-0.32733c-0.14571,-0.92904 -0.24286,-1.87253 -0.24286,-2.84169c0,-4.56339 1.68219,-8.73847 4.454,-11.96686c0.03886,-0.03209 0.07771,-0.05456 0.11171,-0.05776c0.136,-0.01444 0.5019,-0.04011 0.82571,-0.09467c0.32705,-0.05456 0.67676,-0.25834 0.79171,-0.2455c0.11171,0.01284 0.39019,0.01284 0.30114,-0.06739c-0.09067,-0.09146 -0.21695,-0.2808 -0.40476,-0.2808s-0.01295,-0.29845 0.03724,-0.29845c0.04857,0 0.30114,0.04011 0.28819,0.1765c-0.01133,0.13639 0.0761,0.31129 0.32543,0.25834c0.25257,-0.05456 0.21371,-0.25994 0.16514,-0.31289c-0.05181,-0.05456 -0.08905,-0.19094 -0.13762,-0.28561c-0.05019,-0.09627 -0.03724,-0.21822 0.22667,-0.2455c0.26229,-0.02567 0.62495,0.10751 0.612,-0.10911s0,-0.44928 0.07448,-0.57123c0.0761,-0.12034 0.23962,-0.20378 0.15057,-0.24389c-0.08581,-0.04011 -0.19914,0.05456 -0.28819,-0.14922c-0.08743,-0.20378 0.0761,-0.35301 0.17486,-0.43484c0.03238,-0.02407 0.10848,-0.09627 0.20076,-0.17971c3.04543,-2.13728 6.75305,-3.40649 10.76181,-3.40649c5.202,0 9.91181,2.12284 13.29886,5.53575c-0.01295,0.0353 -0.01619,0.08344 -0.05019,0.08986c-0.12467,0.02086 -0.26876,0.10109 -0.28981,-0.08183c-0.02105,-0.18292 -0.02105,-0.53111 -0.16514,-0.32573c-0.1441,0.20378 -0.20562,0.20378 -0.20562,0.30647c0,0.10109 0.12305,0.20378 0.08257,0.3867c-0.0421,0.18292 -0.0421,0.30647 0.02267,0.30647c0.05829,0 0.204,-0.18453 0.38695,-0.22624c0.18781,-0.04011 0.51648,-0.1412 0.53752,0.04172c0.02105,0.18453 0.22505,0.24389 0.02105,0.32573c-0.20724,0.08183 -0.43229,0.04172 -0.47438,-0.08183c-0.04048,-0.12355 -0.18457,-0.12355 -0.32867,-0.02086c-0.14248,0.10109 -0.45171,0.46853 -0.45171,0.46853s-0.49543,0.22303 -0.55533,0.18292c-0.06476,-0.04011 0.16352,-0.26475 0.32867,-0.36584c0.16514,-0.10269 0.28819,-0.32733 0.22667,-0.38831c-0.06152,-0.06097 -0.14248,-0.44767 -0.102,-0.55037c0.04048,-0.10109 0.22505,-0.24389 0.02105,-0.34659c-0.20562,-0.10109 -0.35133,-0.22464 -0.51486,-0.28561s-0.34971,0.24389 -0.49381,0.32733c-0.1441,0.08183 -0.12305,0.18292 -0.30924,0.20378c-0.18457,0.02086 -0.306,0.26475 0,0.40756c0.30924,0.14281 0.41286,0.24389 0.33029,0.32733c-0.08257,0.08183 -0.43229,-0.04011 -0.43229,-0.04011s-0.26714,-0.12195 -0.43391,-0.12195c-0.16352,0 -0.37076,-0.10109 -0.53429,-0.12195c-0.16514,-0.02086 -0.49543,-0.02086 -0.57476,0.06097c-0.08257,0.08183 -0.28981,0.32573 -0.45333,0.24389c-0.16352,-0.08183 -0.16352,-0.16367 -0.39019,-0.08183c-0.22667,0.08183 -0.45171,-0.06097 -0.57476,0.06097c-0.12467,0.12195 -0.02105,0.12195 -0.41286,0c-0.39019,-0.12195 -0.306,0.08183 -0.67838,0.14281s-0.59581,-0.06097 -0.69943,0.06097c-0.10362,0.12355 -0.24771,0.34819 -0.30762,0.20378c-0.06152,-0.1412 0.204,-0.3867 0.10038,-0.46853c-0.10038,-0.08183 -0.53429,-0.04011 -0.59419,0.02086c-0.06314,0.06097 -0.02267,0.28561 0.01781,0.36745c0.0421,0.08023 0.10362,0.40756 -0.01781,0.34659c-0.12467,-0.06097 -0.10362,-0.26636 -0.22829,-0.24389c-0.12305,0.02086 -0.26714,0.08183 -0.32867,0.12355c-0.06152,0.04011 -0.30924,0.04011 -0.37076,0.12195c-0.05991,0.08183 0.02267,0.30647 -0.08257,0.32573c-0.102,0.02086 -0.18457,0.10269 -0.41124,-0.04011c-0.22667,-0.14281 -0.22667,-0.06097 -0.28819,-0.01925c-0.06152,0.04011 -0.34971,0.20378 -0.37076,0.01925c-0.02105,-0.18292 0.04048,-0.24389 -0.1441,-0.36745c-0.18619,-0.12195 -0.0421,-0.12195 0.20562,-0.04011c0.2461,0.08023 0.55533,0.12034 1.00705,-0.02086c0.45333,-0.14281 0.63952,-0.20378 0.45333,-0.28561c-0.18619,-0.08023 -0.37076,-0.16206 -0.65733,-0.20378c-0.28981,-0.04011 -0.68,-0.04011 -1.13333,-0.20378c-0.45171,-0.16367 -0.55533,-0.22464 -0.73991,-0.26475c-0.18619,-0.04172 -1.31629,-0.22464 -1.83276,-0.14281c-0.51324,0.08183 -1.93152,0.44928 -2.01571,0.51025s-0.20724,0.30487 -0.47276,0.51025c-0.26714,0.20378 -0.76095,0.67231 -1.15276,0.75415c-0.39019,0.08183 -0.84352,0.40756 -0.84352,0.48939c0,0.08183 0.16352,0.38831 0.12305,0.44928c-0.04048,0.06097 0.08095,0.36745 0.30924,0.44928c0.22505,0.08023 0.61686,0.06097 0.63629,-0.06258c0.02267,-0.12195 0.33029,-0.3867 0.35133,-0.20378c0.02105,0.18453 0.22667,0.46853 0.18457,0.59048c-0.04048,0.12355 0,0.2455 0.14571,0.22464c0.14248,-0.01925 0.90505,-0.18292 0.90505,-0.18292s0.24771,-0.10269 0.20562,-0.26636c-0.0421,-0.16206 0.26876,-0.3867 0.32867,-0.44767c0.06152,-0.06097 0.28819,-0.30647 0.02267,-0.3867c-0.27038,-0.08183 -0.47438,-0.10269 -0.18619,-0.34659s0.47276,0 0.84352,-0.36745c0.37076,-0.36745 -0.08257,-0.46853 0.30924,-0.48939c0.39019,-0.02086 0.80305,-0.04011 0.71886,0.08183c-0.08095,0.12195 -0.55371,0.38831 -0.82248,0.51025c-0.26876,0.12355 -0.22667,0.34659 -0.12305,0.46853c0.102,0.12195 0.14571,0.40756 0.33029,0.36745c0.18295,-0.04011 0.41124,-0.18292 0.61524,-0.16206c0.20724,0.01925 0.6201,-0.02086 0.68,-0.02086c0.06314,0 0.34971,0.28561 0.18457,0.32573c-0.16352,0.04011 -0.37076,0.02086 -0.72048,0.04011c-0.3481,0.02086 -0.73829,0.02086 -0.73829,0.08183c0,0.06258 0.47276,0.20378 0.30762,0.30647c-0.16514,0.10109 -0.32867,-0.02086 -0.5359,-0.04172c-0.20562,-0.01925 -0.32867,0.26636 -0.39019,0.42842c-0.06314,0.16367 0.102,0.44928 -0.20562,0.34659c-0.30924,-0.10109 -0.5359,-0.10109 -0.61686,-0.06097c-0.08257,0.04011 -0.32867,0.12195 -0.5359,0.18292c-0.204,0.06097 -0.12305,-0.10109 -0.39181,-0.10109c-0.26552,0 -0.26552,0 -0.26552,0l-0.16676,0.02086c0,0 -0.16352,-0.10109 -0.18457,-0.26475c-0.02105,-0.16367 0.08095,-0.34659 -0.02105,-0.3867c-0.10362,-0.04172 -0.47276,0.01925 -0.53429,0.1412c-0.06152,0.12195 -0.12467,0.34659 -0.0421,0.44928c0.08419,0.10109 0.33029,0.30487 0.10362,0.24389c-0.22667,-0.06097 -0.51324,-0.08183 -0.67838,0.04172c-0.16352,0.12195 -0.45171,0.3867 -0.45171,0.3867s-0.51486,0.04011 -0.51486,0.16367c0,0.12355 0,0.28561 -0.18457,0.30647c-0.18619,0.02086 -0.43391,0.08023 -0.68,0.12195c-0.24771,0.04011 -0.22505,0.1412 -0.51324,0.16367s-0.33029,0.14281 -0.06152,0.18292c0.26714,0.04011 0.67676,0.20378 0.69781,0.3867c0.02267,0.18292 -0.02105,0.38831 -0.12305,0.57123c-0.06962,0.12676 -0.49381,0.04172 -0.74152,0.04172c-0.2461,0 -0.73829,-0.08183 -0.94552,0c-0.20562,0.08183 -0.16514,0.48939 -0.10362,0.67231c0.06314,0.18292 -0.01943,0.28561 -0.102,0.34659c-0.08257,0.06097 -0.10524,0.24389 0,0.32733c0.102,0.08183 0.18457,0.26475 0.26876,0.28561c0.08257,0.02086 0.3481,-0.06097 0.45171,0.04011c0.10362,0.10269 0.20562,0.34659 0.26714,0.28561c0.06314,-0.06097 0.1441,-0.32573 0.24771,-0.26636c0.10362,0.06258 0.34971,-0.01925 0.5359,-0.04011s0.28657,-0.22464 0.47276,-0.32733c0.18457,-0.10109 0.08095,-0.10109 0.02105,-0.22464c-0.06152,-0.12195 0.18457,-0.26475 0.33029,-0.40756c0.14248,-0.14281 0.40962,-0.02086 0.47276,-0.18453c0.06152,-0.16367 0.08257,-0.44767 0.24448,-0.42842c0.16676,0.02086 0.39343,0.12195 0.5359,0.12195c0.1441,0 0.45171,-0.22464 0.53752,-0.26475c0.08095,-0.04011 0.39019,-0.02086 0.43229,0.16367c0.04048,0.18292 0.39019,0.40756 0.47276,0.44767c0.08257,0.04011 0.61686,0.20378 0.70105,0.26475c0.08095,0.06097 0.204,0.2455 0.2461,0.40756c0.04048,0.16367 0.18457,0.16367 0.20724,0.02086c0.01943,-0.14281 -0.10524,-0.40756 0.04048,-0.38831c0.14248,0.02086 0.30924,-0.04172 0.30924,-0.04172s-0.39343,-0.26475 -0.5359,-0.32573c-0.14248,-0.06097 -0.41286,-0.18292 -0.5359,-0.3867c-0.12305,-0.20378 -0.43229,-0.2455 -0.41124,-0.44767c0.02105,-0.20378 0.30924,-0.08183 0.47276,0.08183c0.16514,0.16367 0.57638,0.3867 0.72048,0.52951c0.14248,0.14281 0.37076,0.20378 0.43229,0.38831c0.06314,0.18292 0.2461,0.3867 0.30762,0.46853c0.06152,0.08183 0.26714,0.53111 0.33029,0.6322c0.06152,0.10109 0.26714,-0.01925 0.37076,-0.10109c0.102,-0.08183 0.28981,-0.12195 0.30924,-0.28561c0.02105,-0.16367 -0.24771,-0.28561 -0.32867,-0.34659c-0.08257,-0.06097 0.20562,-0.12195 0.30924,-0.20378c0.102,-0.08023 0.28657,-0.22464 0.36914,-0.10109c0.08257,0.12355 0.0421,0.61134 0.08257,0.69317c0.04048,0.08183 0.45171,0.20378 0.5359,0.30647c0.08095,0.10109 0.43229,0.14281 0.49219,0.08183c0.06314,-0.06097 0.39181,0.04172 0.476,0.06097c0.07933,0.02086 0.32705,-0.04011 0.49219,-0.08023c0.16676,-0.04011 0.33029,-0.16367 0.30924,0.10109c-0.02105,0.26475 -0.08257,0.67231 -0.28981,0.87609c-0.20562,0.20378 -0.12305,0.30647 -0.32705,0.30647c-0.09714,0 -0.18295,0 -0.25257,0.0337c-0.06638,-0.1043 -0.15867,-0.18773 -0.28333,-0.15564c-0.2461,0.06097 -0.55695,0.06097 -0.76095,0.30487c-0.20724,0.2455 -0.28819,0.26475 -0.33029,0.18292c-0.04048,-0.08183 0.59743,-0.42842 0.51324,-0.53111c-0.08095,-0.10109 -0.57476,-0.06097 -0.84352,-0.06097c-0.26876,0 -0.49381,-0.16367 -0.70105,-0.20378c-0.204,-0.04011 -0.47276,0.20378 -0.67676,0.40756c-0.20724,0.20378 -0.34971,0.06097 -0.5359,0.06097c-0.18619,0 -0.5359,-0.26475 -0.5359,-0.26475s-0.34971,-0.14281 -0.49381,-0.14281c-0.14248,0 -0.43229,-0.26475 -0.51486,-0.26475c-0.08095,0 -0.30762,-0.18453 -0.14248,-0.26636c0.16352,-0.08023 0.32705,0.08183 0.16352,-0.36745c-0.16352,-0.44767 -0.53429,-0.34659 -0.67838,-0.28561c-0.14248,0.06258 -1.17219,0.04011 -1.25476,0.04011c-0.08257,0 -0.67838,0.20378 -0.86295,0.28561c-0.18781,0.08183 -0.51486,0.18453 -0.59743,0.22464c-0.08257,0.04011 -0.51486,-0.08183 -0.70105,0.02086c-0.24448,0.13478 -0.47114,0.34659 -0.53429,0.34659c-0.06152,0 -0.24771,0.14281 -0.37076,0.44928c-0.12467,0.30487 0.02105,0.56962 -0.20724,0.67231c-0.22505,0.10109 -0.6379,0.32733 -0.80143,0.48939c-0.16514,0.16206 -0.37076,0.73489 -0.57476,0.99965c-0.20562,0.26475 0,0.50865 0.04048,0.67231c0.04048,0.16206 0.18457,0.46853 -0.04048,0.75575c-0.22667,0.28561 -0.20562,0.42682 -0.30924,0.44767c-0.102,0.02086 0.102,0.10109 0.14248,0.30487c0.04048,0.20538 -0.18457,0.40916 0.20724,0.59208c0.39019,0.18132 0.57476,0.34819 0.67676,0.58888c0.10362,0.2455 0.61848,0.65306 0.61848,0.65306s0.37076,0.32894 0.55695,0.47014c0.18457,0.14281 0.2461,0.06097 0.28657,-0.08023c0.04048,-0.14441 0.28819,-0.16687 0.57476,-0.16687c0.28819,0 0.49381,0.06418 0.782,0.02246c0.28819,-0.04011 0.57638,-0.22624 0.68,-0.26636c0.102,-0.04011 0.45171,-0.26315 0.71724,-0.10109c0.26876,0.16527 0.22829,0.3867 0.37238,0.53272c0.14248,0.1412 0.38857,0.05937 0.57476,-0.08183c0.18457,-0.14441 0.10362,-0.08344 0.32867,0.04011c0.22667,0.12034 0.33029,0.24229 0.12467,0.42842c-0.20724,0.18132 -0.08257,0.47014 -0.20724,0.75415c-0.12305,0.28561 -0.102,0.32573 0.12467,0.44607c0.22667,0.12195 0.6379,0.8793 0.76095,1.02371c0.12467,0.1412 -0.04048,0.54876 0.10362,0.79426c0.1441,0.24229 0.28819,0.40756 0.12467,0.53111c-0.16676,0.12034 -0.45333,0.34659 -0.47276,0.75415s0.08257,0.69157 0.16514,0.83598s0.28657,0.53111 0.39019,0.67231c0.10362,0.14281 0.22667,0.48939 0.2461,0.71403c0.02105,0.22464 -0.03886,0.491 0.06314,0.61134c0.10362,0.12195 0.16514,0.30647 0.34971,0.46853c0.18619,0.16527 0.2461,0.51025 0.2461,0.51025s0.06314,0.14281 0.08257,0.36745c0.01943,0.22464 0.04048,0.36584 0.2461,0.46853c0.204,0.10109 0.3481,0.12195 0.45333,0.02086c0.102,-0.10109 0.61686,-0.12355 0.884,-0.10109c0.26714,0.02086 0.57476,-0.12034 0.84352,-0.30487s0.65895,-0.67231 0.80305,-0.81512c0.1441,-0.14441 0.47276,-0.40916 0.43391,-0.57123c-0.04048,-0.16206 -0.12467,-0.32573 0.03886,-0.40756c0.16514,-0.08344 0.55695,-0.24389 0.57638,-0.36745c0.02105,-0.12355 -0.14571,-0.6338 -0.18619,-0.73329c-0.03886,-0.10269 0.10362,-0.28882 0.26714,-0.491c0.16676,-0.20538 0.68162,-0.34659 0.76257,-0.42842c0.08257,-0.08504 0.30924,-0.42842 0.35133,-0.69478c0.03886,-0.26796 -0.08257,-0.59208 0,-0.73329c0.08095,-0.14441 0.02105,-0.26475 -0.16676,-0.43002c-0.18457,-0.16367 -0.1441,-0.65306 -0.20562,-0.73329c-0.05991,-0.08183 -0.02105,-0.51186 0.102,-0.55358c0.12305,-0.03691 0.39181,-0.44767 0.55695,-0.63059c0.16514,-0.18292 0.6379,-0.75415 0.86457,-0.79586c0.22505,-0.04011 0.57476,-0.36745 0.59581,-0.55037c0.02105,-0.18453 0.61524,-0.8777 0.6379,-1.0189c0.02105,-0.14441 0.26876,-0.67392 0.16514,-0.79747c-0.10038,-0.12195 -0.90505,0.18453 -1.00705,0.22624c-0.10362,0.04011 -0.39019,0.20378 -0.7221,0.18132c-0.32705,-0.02086 -0.18457,-0.28401 -0.20562,-0.40756c-0.01943,-0.12195 -0.36914,-0.59048 -0.45171,-0.61134c-0.08257,-0.01925 -0.32867,-0.26636 -0.43229,-0.50865c-0.102,-0.2455 -0.2461,-0.55037 -0.41124,-0.73489c-0.16514,-0.18292 -0.26714,-0.60974 -0.43391,-0.89695c-0.16352,-0.28561 -0.306,-0.65306 -0.45171,-0.91781c-0.034,-0.06579 -0.07286,-0.12676 -0.10848,-0.18773c0.19105,-0.04653 0.46791,-0.13157 0.5019,-0.01444c0.03886,0.1412 0.26714,0.44767 0.30762,0.67231s0.26714,0.14281 0.28819,0.34659c0.02267,0.20538 0.22667,0.69478 0.30762,0.75415c0.08419,0.06097 0.45333,0.38831 0.51486,0.51025c0.06152,0.12195 0.1441,0.28561 0.20562,0.59208c0.06152,0.30487 0.12305,0.71243 0.28981,0.7734c0.16514,0.06097 0.71886,-0.10269 0.82248,-0.16367s0.78038,-0.38831 1.0281,-0.40916c0.24771,-0.01925 0.28981,-0.18453 0.59581,-0.24389c0.30924,-0.06097 0.5359,-0.28401 0.74152,-0.44928c0.20562,-0.16206 0.45333,-0.56962 0.53429,-0.71243c0.08419,-0.1412 0.28981,-0.24389 0.18619,-0.40596c-0.102,-0.16527 -0.5359,-0.40756 -0.70105,-0.43002c-0.16514,-0.01925 -0.1441,-0.28561 -0.2461,-0.28561s-0.08257,0.1412 -0.28819,0.2455c-0.20562,0.10109 -0.41286,0.30487 -0.55695,0.26475s0.0421,-0.14281 -0.18295,-0.32573s-0.31086,-0.22464 -0.31086,-0.36584c0,-0.14281 -0.4501,-0.40916 -0.49219,-0.61294c-0.0421,-0.20378 0.30762,-0.48939 0.41124,-0.30487c0.102,0.18292 0.18619,0.46853 0.45171,0.59048c0.26714,0.12195 0.51486,0.32733 0.63952,0.36745c0.12305,0.04011 0.43229,-0.22464 0.53429,-0.18292c0.102,0.03851 0.30924,0.40596 0.49543,0.46853c0.18295,0.06097 0.80143,0.08183 0.90505,0.08183s0.53429,0.02086 0.61686,-0.10109c0.08257,-0.12195 0.1441,-0.12195 0.24771,-0.12195c0.10038,0 0.28657,0.36745 0.43229,0.40756c0.1441,0.04011 0.41124,0.02086 0.39019,0.28722c-0.01943,0.26315 0.12305,0.48939 0.26714,0.50865c0.14571,0.01925 0.47438,-0.30647 0.47438,-0.30647s0,0.51025 -0.01943,0.69478c-0.02267,0.18132 0.22505,0.85684 0.22505,0.85684s0.30762,0.63059 0.39019,0.7734s0.43229,0.56962 0.43229,0.75415c0,0.18453 0.04048,0.47014 0.16676,0.47014c0.12305,0 0.2461,-0.32573 0.38857,-0.53111c0.14733,-0.20218 0.18781,-0.48939 0.24771,-0.69317c0.06152,-0.20378 0.06152,-0.57123 0.06152,-0.71243c0,-0.14441 0.12143,-0.26636 0.41286,-0.38831c0.28819,-0.12195 0.49219,-0.46853 0.73829,-0.65306c0.24771,-0.18453 0.22829,-0.48939 0.7221,-0.48939c0.49381,0 0.4501,0 0.57476,-0.12355c0.12305,-0.12195 0.24448,-0.20378 0.30762,0.02086c0.06152,0.22464 0.41124,0.55037 0.47276,0.6322c0.06152,0.08344 0.18457,0.30647 0.16676,0.55197c-0.02105,0.24389 0.01943,0.52951 0.12143,0.52951s0.30924,-0.34659 0.30924,-0.34659s0.45171,-0.30326 0.43229,0.02086c-0.02267,0.32573 0.04048,0.67231 0.04048,0.87449c0,0.08504 0.068,0.21662 0.14248,0.33696c-0.0081,0.09467 -0.00648,0.19094 -0.01457,0.28561c-0.14733,0.03851 -0.14895,0.3177 -0.06962,0.41879l0.00001,0zm-11.42077,-8.54592c0.12305,0.08023 0.16514,0.20378 0.2461,0.32573c0.08419,0.12195 0.22667,0.08023 0.32867,0.18292c0.102,0.10269 -0.28819,0.22464 -0.12143,0.34659c0.16352,0.12355 0.24448,0.61134 0.26714,0.73489c0.02105,0.12195 -0.45171,0.18292 -0.59743,0.16367c-0.1441,-0.02086 -0.57314,-0.16367 -0.72048,-0.20378c-0.1441,-0.04172 -0.22505,-0.55037 -0.04048,-0.53111c0.18781,0.02086 0.22829,-0.04011 0.43229,-0.22303c0.20724,-0.18453 -0.306,-0.26636 -0.4501,-0.30647c-0.1441,-0.04011 -0.43391,-0.48939 -0.5359,-0.6322c-0.10038,-0.14281 -0.02267,-0.36584 0.22829,-0.53111c0.12305,-0.08183 0.45171,0.10109 0.61686,0c0.16352,-0.10109 0.32867,-0.22464 0.39019,-0.26475c0.06314,-0.04011 0.47438,0.06097 0.53429,0.18292c0.06314,0.12195 0.30924,0.30647 0.22829,0.36745c-0.08419,0.06097 -0.45495,0.12195 -0.57638,0c-0.12143,-0.12355 -0.41286,0.01925 -0.43391,0.24389c-0.02267,0.22624 0.08257,0.06258 0.204,0.14441l0,0zm-5.678,0.34659c-0.12467,-0.04011 0.04048,-0.28561 0.16514,-0.36745c0.12143,-0.08183 0.26552,-0.28561 0.39019,-0.48939c0.12305,-0.20378 0.28819,-0.22464 0.39019,-0.20378c0.102,0.02086 0.32867,0.3867 0.39019,0.51025c0.06152,0.12195 0.26714,-0.04172 0.35133,-0.08183c0.08095,-0.04011 0.20562,-0.16367 0.22667,-0.26475s0.20562,-0.16367 0.41124,-0.16367s0.02105,0.16367 -0.12305,0.20378c-0.14571,0.04011 -0.06152,0.12355 0.18295,0.20378c0.24771,0.08183 0.47438,0.30647 0.74314,0.44767c0.26714,0.14281 0.30762,0.42842 0.14248,0.46853c-0.16352,0.04011 -0.65733,0.08183 -0.84352,0.06097c-0.18457,-0.02086 -0.41124,-0.20378 -0.67838,-0.2455c-0.26714,-0.04011 -0.59743,-0.02086 -0.70105,0.12355s-0.47276,0.08023 -0.63952,0.08023c-0.16514,0 -0.36914,0.20378 -0.40962,0.12355c0.00162,0.0016 0.12467,-0.36424 0.00162,-0.40596l0,0zm0.69943,-4.52809c0.102,-0.28561 0.67838,0.06097 0.57476,0.20378c-0.102,0.14441 -0.64438,-0.00963 -0.57476,-0.20378zm0.80143,14.64327c0.102,0.16367 -0.22667,0.69157 -0.41124,0.65306c-0.18295,-0.04332 -0.12305,-0.51025 -0.06152,-0.61294c0.06152,-0.10269 0.41933,-0.12837 0.47276,-0.04011zm-7.46867,-9.48299c0.04048,-0.08183 -0.06314,-0.2455 -0.20562,-0.02086c-0.04857,0.07862 0.16514,0.10269 0.20562,0.02086zm12.34363,-7.44358c0.22829,0.12195 0.54886,0.17169 0.70105,0.02086c0.12305,-0.12195 0.02105,-0.32733 -0.08095,-0.34659c-0.10362,-0.02086 -0.16838,-0.18453 0.10038,-0.32573c0.26714,-0.14281 0.55533,-0.32733 0.86457,-0.36745c0.30762,-0.04011 1.00705,-0.06097 1.25314,0c0.2461,0.06258 0.61848,-0.26636 0.72048,-0.40756s-0.32867,-0.24389 -0.45171,-0.08183c-0.12467,0.16367 -0.71886,0.12195 -0.84352,0.08183c-0.12305,-0.04011 -1.11067,0.16367 -1.31467,0.16367c-0.20724,0 -0.28981,0.24389 -0.57638,0.36745c-0.28981,0.12195 -0.68,0.30647 -0.8241,0.36745c-0.14248,0.06097 -0.28657,0.30487 -0.16352,0.34659c0.12305,0.04011 0.39019,0.05937 0.61524,0.18132l0,0zm-10.80067,7.44358c0.10362,-0.14281 -0.08257,-0.34819 -0.18457,-0.34819c-0.19429,0 -0.28819,0.30647 -0.16676,0.40756c0.12467,0.1043 0.24771,0.08344 0.35133,-0.05937zm0.9261,0.55037c0.10362,0.04011 0.18457,0.16367 0.26714,0.18292c0.08419,0.02086 0.35133,0 0.27038,-0.20378s-0.27038,-0.20378 -0.33029,-0.20378c-0.06152,0 -0.32867,-0.06097 -0.43229,0c-0.0761,0.04493 0.12143,0.18453 0.22505,0.22464l0,0zm-5.51448,-3.3038c0.16352,0.02086 0.35133,-0.10109 0.49381,-0.16206c0.14248,-0.06097 0.34971,-0.18292 0.34971,-0.36745c0,-0.18292 -0.04048,-0.34659 -0.12467,-0.42842c-0.08257,-0.08183 -0.22667,-0.10269 -0.34971,-0.08183c-0.18619,0.03209 -0.20562,0.22464 -0.32867,0.22464c-0.12305,0 -0.26714,0.04011 -0.22667,0.18292s0.12467,0.24389 0,0.30487c-0.12305,0.06258 0.01943,0.30808 0.18619,0.32733zm1.00867,-0.87609c0.20562,0.08183 0.6379,0.16367 0.47276,0.2455c-0.16514,0.08183 -0.45333,0.30487 -0.49381,0.42842s0.34971,0.2455 0.34971,0.2455s-0.12467,0.14281 -0.02105,0.18292c0.102,0.04011 0.16514,-0.14281 0.32867,-0.14281c0.16352,0 0.49219,0.10109 0.65733,0.10109c0.16676,0 0.43229,-0.22464 0.41124,-0.36745c-0.02105,-0.14281 -0.22667,-0.36745 -0.41124,-0.44928c-0.18295,-0.08183 -0.39019,-0.44928 -0.51324,-0.53111c-0.12305,-0.08183 0.12305,-0.28561 -0.02105,-0.42842c-0.14571,-0.14281 -0.24771,-0.12195 -0.41286,-0.22464c-0.16514,-0.10109 -0.30924,0.02086 -0.41124,0.14281c-0.102,0.12195 -0.22667,-0.02086 -0.35133,0.01925c-0.16514,0.05616 -0.102,0.26636 -0.01943,0.36745c0.08419,0.1043 0.2299,0.32894 0.43552,0.41077l0,0zm20.72058,10.88859c-0.13438,0.05937 -0.24771,0.75415 0,0.83598c0.2461,0.08344 0.39019,-0.32412 0.30924,-0.42842c-0.08419,-0.09948 -0.12467,-0.48939 -0.30924,-0.40756zm-7.47191,5.24051c-0.25743,-0.07221 -0.28657,0.26636 -0.49219,0.491c-0.20724,0.22624 -0.43229,0.40756 -0.51324,0.3867c-0.08419,-0.02086 -0.5359,0.14281 -0.39181,0.44767c0.1441,0.30647 0.12305,0.61294 -0.02105,0.75736c-0.1441,0.1412 0.12305,0.54876 0.08419,0.7734c-0.0421,0.22303 0.05991,0.36745 0.3481,0.36745s0.39181,-0.10269 0.51486,-0.36745c0.12305,-0.26636 0.14248,-0.53111 0.26552,-0.75415c0.12467,-0.22624 0.22829,-0.69638 0.28981,-0.81833c0.06152,-0.12034 0.18457,-0.50704 0.16514,-0.73329c-0.02267,-0.22143 -0.10362,-0.51025 -0.24933,-0.55037zm-15.74201,-18.71245c-0.11171,-0.09627 -0.37076,-0.16367 -0.49543,-0.1765c-0.12305,-0.01284 -0.2461,0.09627 -0.51971,0.09627c-0.272,0 -0.45171,0.10751 -0.56181,0c-0.1101,-0.10911 -0.56505,-0.16367 -0.60714,-0.09627c-0.05505,0.09146 -0.16352,0.09467 -0.05505,0.28561c0.11171,0.18934 0.19429,0.29845 0.28981,0.28561s0.42419,-0.02728 0.46629,0.08183c0.04048,0.10911 0.15219,0.20378 0.38371,0.13639c0.23476,-0.06739 0.42581,-0.10911 0.47924,-0.19094c0.05343,-0.08183 0.42581,-0.09467 0.42581,-0.09467s0.30276,-0.23266 0.19429,-0.32733l0,0z" id="svg_15"/>
    <g stroke="null" id="svg_13">
     <path stroke="#000" fill="url(#svg_3)" d="m3.7502,23.74078c0.03087,-2.37803 -0.01975,-4.75924 0.25383,-7.13308c6.72241,0.78089 13.36553,2.05862 19.97467,3.20768c0.35481,-1.16604 -4.05962,-6.71868 -3.75135,-7.79676c4.24598,2.2686 23.14561,9.85543 27.38974,11.82009c-4.63736,2.03376 -22.93439,8.86632 -27.29394,11.29789c-0.14117,-1.13234 3.68654,-6.27689 3.54537,-7.40924c-6.42533,1.09549 -13.22033,2.22812 -19.6872,3.22961c-0.43978,-2.31089 -0.42685,-4.82753 -0.43112,-7.21618z" id="svg_11"/>
    </g>
   </g>
   <text stroke="#000" transform="matrix(0.128829 0 0 0.0956472 -9.88996 1.28052)" font-weight="bold" font-style="italic" xml:space="preserve" text-anchor="start" font-family="Noto Sans JP" font-size="58" id="svg_1" y="249" x="257.59049" stroke-width="0" fill="#ff0000">Right</text>
  </g>
 </g>
 <defs stroke="null">
  <radialGradient id="svg_17" spreadMethod="pad" stroke="null">
   <stop stop-color="#00bf00" stop-opacity="0.99609" offset="0" stroke="null"/>
   <stop stop-color="#5df75d" stop-opacity="0.99609" offset="1" stroke="null"/>
  </radialGradient>
  <linearGradient id="svg_3" x1="0" y1="0" x2="1" y2="0" stroke="null">
   <stop stop-color="#0f23ff" stop-opacity="0.99609" offset="0" stroke="null"/>
   <stop stop-color="#d4d7f4" stop-opacity="0.98828" offset="1" stroke="null"/>
  </linearGradient>
 </defs>
</svg>